<svg width="576" height="148" viewBox="0 0 576 148" fill="none" xmlns="http://www.w3.org/2000/svg">
<path d="M176.942 606.831C172.782 606.831 169.004 605.656 165.904 603.342C161.01 599.686 158.422 593.613 158.624 586.242L168.869 207.358C169.282 192.128 181.63 175.83 196.395 171.02L563.912 51.3441C571.255 48.9546 578.066 49.7048 583.095 53.4597C587.989 57.1153 590.577 63.1882 590.375 70.559L580.13 449.444C579.717 464.674 567.369 480.971 552.604 485.782L185.087 605.457C182.273 606.378 179.53 606.831 176.942 606.831ZM572.053 51.2806C569.6 51.2806 567 51.7132 564.321 52.5864L196.804 172.262C182.519 176.914 170.575 192.672 170.178 207.394L159.934 586.278C159.747 593.212 162.145 598.904 166.69 602.298C171.369 605.791 177.756 606.474 184.682 604.219L552.199 484.543C566.48 479.891 578.428 464.134 578.824 449.412L589.069 70.5273C589.255 63.5931 586.858 57.9012 582.313 54.5075C579.444 52.3681 575.935 51.2806 572.053 51.2806Z" fill="#5C4099" fill-opacity="0.1"/>
<path d="M155.451 596.677C150.593 596.677 146.29 595.169 142.972 592.24C138.241 588.056 136.105 581.515 136.963 573.815L180.191 185.618C181.926 170.019 195.652 154.393 210.782 150.781L587.333 60.8939C594.716 59.1316 601.352 60.4375 606.028 64.5694C610.763 68.753 612.895 75.2942 612.037 82.9945L568.812 471.191C567.074 486.786 553.352 502.417 538.222 506.029L161.671 595.915C159.524 596.423 157.44 596.677 155.451 596.677ZM593.537 61.4576C591.651 61.4576 589.679 61.6997 587.639 62.1839L211.088 152.071C196.457 155.564 183.188 170.678 181.505 185.765L138.277 573.962C137.467 581.221 139.447 587.358 143.845 591.248C148.184 595.086 154.404 596.284 161.354 594.625L537.904 504.739C552.535 501.246 565.808 486.131 567.487 471.044L610.712 82.8476C611.521 75.5919 609.541 69.4516 605.143 65.5657C602.078 62.8508 598.073 61.4576 593.537 61.4576Z" fill="#5C4099" fill-opacity="0.1"/>
<path d="M135.057 584.324C129.429 584.324 124.562 582.423 121.081 578.799C116.553 574.08 114.913 567.086 116.465 559.104L193.361 164.31C196.449 148.449 211.484 133.636 226.877 131.287L609.826 72.8083C617.197 71.685 623.611 73.5347 627.91 78.0119C632.438 82.7313 634.078 89.7251 632.526 97.7071L555.63 492.504C552.542 508.361 537.503 523.178 522.11 525.528L139.161 584.007C137.76 584.221 136.387 584.324 135.057 584.324ZM613.934 73.8323C612.672 73.8323 611.37 73.9316 610.036 74.138L227.083 132.616C212.206 134.887 197.675 149.22 194.682 164.568L117.787 559.362C116.318 566.899 117.834 573.472 122.05 577.866C126.039 582.022 132.04 583.729 138.959 582.673L521.912 524.195C536.788 521.924 551.32 507.591 554.312 492.242L631.208 97.4491C632.677 89.9116 631.16 83.3386 626.945 78.9447C623.726 75.5907 619.197 73.8323 613.934 73.8323Z" fill="#5C4099" fill-opacity="0.1"/>
<path d="M115.955 569.816C109.47 569.816 104 567.451 100.424 563.049C96.2045 557.861 95.0812 550.248 97.3318 542.163L208.343 143.615C212.804 127.607 229.078 113.743 244.621 112.715L631.21 87.0655C638.498 86.5813 644.666 88.9628 648.571 93.7695C652.791 98.9573 653.918 106.57 651.664 114.655L540.653 513.204C536.191 529.211 519.917 543.076 504.374 544.108L117.785 569.757C117.17 569.797 116.559 569.816 115.955 569.816ZM633.04 88.3714C632.468 88.3714 631.889 88.3913 631.301 88.431L244.712 114.08C229.701 115.076 213.979 128.492 209.66 143.984L98.6494 542.532C96.518 550.185 97.5502 557.349 101.484 562.188C105.108 566.641 110.883 568.844 117.698 568.391L504.287 542.742C519.298 541.746 535.024 528.33 539.339 512.839L650.349 114.29C652.481 106.638 651.449 99.4733 647.512 94.6348C644.205 90.5584 639.109 88.3714 633.04 88.3714Z" fill="#5C4099" fill-opacity="0.1"/>
<path d="M485.691 561.593C485.489 561.593 485.286 561.589 485.084 561.589L97.7286 553.198C90.5642 553.043 84.6898 550.141 81.189 545.025C77.2714 539.298 76.7435 531.288 79.7482 523.044L225.073 123.71C230.832 107.876 247.888 95.2266 263.316 95.2266C263.519 95.2266 263.721 95.2266 263.919 95.2345L651.274 103.625C658.443 103.78 664.313 106.686 667.814 111.798C671.732 117.526 672.26 125.535 669.259 133.779L523.93 533.11C518.171 548.939 501.115 561.593 485.691 561.593ZM263.304 96.6078C248.42 96.6078 231.951 108.853 226.375 124.178L81.0502 523.512C78.2042 531.331 78.6725 538.885 82.3361 544.235C85.575 548.971 91.0524 551.658 97.7604 551.805L485.115 560.195C500.183 560.529 516.976 548.157 522.628 532.633L667.953 133.299C670.799 125.48 670.331 117.926 666.667 112.576C663.428 107.841 657.951 105.154 651.243 105.007L263.888 96.6158C263.693 96.6078 263.499 96.6078 263.304 96.6078Z" fill="#5C4099" fill-opacity="0.1"/>
<path d="M467.496 577.981C466.432 577.981 465.377 577.922 464.333 577.806L79.1846 534.383C72.1829 533.593 66.6338 530.184 63.5616 524.778C60.0013 518.514 60.1205 510.147 63.8872 501.824L243.462 104.764C250.674 88.8119 269.155 77.2655 284.658 79.008L669.807 122.431C676.808 123.221 682.357 126.634 685.43 132.041C688.99 138.304 688.871 146.671 685.104 154.994L505.529 552.054C498.801 566.927 482.27 577.981 467.496 577.981ZM281.467 80.2344C267.222 80.2344 251.262 90.9354 244.748 105.34L65.1731 502.399C61.5969 510.31 61.4541 518.213 64.7882 524.079C67.6302 529.08 72.802 532.244 79.3433 532.982L464.491 576.405C479.428 578.092 497.265 566.903 504.243 551.467L683.822 154.407C687.398 146.496 687.541 138.594 684.207 132.731C681.361 127.726 676.193 124.567 669.652 123.828L284.504 80.4051C283.503 80.29 282.487 80.2344 281.467 80.2344Z" fill="#5C4099" fill-opacity="0.1"/>
<path d="M448.081 593.184C446.093 593.184 444.14 592.994 442.251 592.601L62.3538 513.399C55.5585 511.982 50.3668 508.073 47.7391 502.389C44.5995 495.601 45.4052 486.933 49.942 478.609L263.442 86.9594C272.019 71.2255 291.445 61.0206 306.75 64.2079L686.651 143.41C693.446 144.827 698.638 148.736 701.265 154.42C704.405 161.207 703.599 169.876 699.062 178.204L485.563 569.853C478.041 583.638 462.184 593.184 448.081 593.184ZM300.871 65.0494C287.281 65.0494 271.976 74.2937 264.7 87.6461L51.2003 479.296C46.8779 487.222 46.092 495.419 49.0372 501.793C51.4703 507.052 56.3007 510.68 62.6435 512.002L442.54 591.204C457.262 594.272 476.001 584.389 484.297 569.167L697.796 177.517C702.119 169.59 702.905 161.394 699.959 155.019C697.526 149.76 692.696 146.132 686.353 144.811L306.452 65.609C304.646 65.228 302.773 65.0494 300.871 65.0494Z" fill="#5C4099" fill-opacity="0.1"/>
<path d="M427.57 607.065C424.589 607.065 421.687 606.66 418.957 605.815L47.407 490.339C40.8499 488.303 36.0511 483.905 33.8879 477.955C31.2364 470.663 32.7646 461.757 38.0715 453.52L284.893 70.4799C294.812 55.0873 315.055 46.3432 330.038 51.003L701.588 166.479C708.145 168.515 712.944 172.913 715.107 178.863C717.759 186.155 716.231 195.057 710.924 203.298L464.102 586.338C455.993 598.928 440.97 607.065 427.57 607.065ZM321.378 51.1935C308.478 51.1935 293.97 59.0804 286.119 71.2658L39.2978 454.306C34.2371 462.157 32.7645 470.596 35.2571 477.459C37.2576 482.968 41.7271 487.052 47.8397 488.95L419.389 604.426C433.778 608.899 453.294 600.429 462.884 585.548L709.705 202.504C714.766 194.653 716.239 186.214 713.746 179.355C711.745 173.846 707.276 169.762 701.163 167.864L329.614 52.3883C327.002 51.5786 324.228 51.1935 321.378 51.1935Z" fill="#5C4099" fill-opacity="0.1"/>
<path d="M406.091 619.479C402.035 619.479 398.125 618.772 394.597 617.284L34.5259 465.307C28.2426 462.655 23.8605 457.777 22.1895 451.573C20.0977 443.81 22.372 434.74 28.433 426.687L307.699 55.4783C318.924 40.5541 339.877 33.3976 354.396 39.53L714.471 191.507C720.754 194.158 725.136 199.037 726.807 205.24C728.899 213.004 726.625 222.074 720.564 230.127L441.298 601.336C432.8 612.632 418.729 619.479 406.091 619.479ZM342.854 38.7917C330.688 38.7917 317.102 45.4283 308.878 56.3634L29.6119 427.572C23.8287 435.26 21.6418 443.869 23.6144 451.188C25.1664 456.944 29.2469 461.477 35.1015 463.949L395.176 615.927C409.116 621.809 429.275 614.867 440.123 600.451L719.393 229.242C725.176 221.554 727.363 212.945 725.39 205.625C723.838 199.87 719.758 195.337 713.903 192.868L353.829 40.8914C350.459 39.4665 346.728 38.7917 342.854 38.7917Z" fill="#5C4099" fill-opacity="0.1"/>
<path d="M383.785 630.303C378.578 630.303 373.604 629.199 369.333 626.873L23.8773 438.439C17.8958 435.177 13.9661 429.826 12.8111 423.376C11.3465 415.188 14.3949 406.031 21.1703 398.259L331.729 42.1178C344.22 27.793 365.729 22.3274 379.673 29.9324L725.129 218.367C731.111 221.629 735.04 226.98 736.195 233.434C737.66 241.622 734.615 250.775 727.836 258.551L417.281 614.692C408.604 624.627 395.594 630.303 383.785 630.303ZM365.178 27.9795C353.806 27.9795 341.243 33.4809 332.856 43.1022L22.2976 399.243C15.8198 406.674 12.8983 415.374 14.2836 423.114C15.3592 429.108 19.019 434.085 24.5918 437.125L370.048 625.56C383.412 632.847 404.088 627.528 416.142 613.704L726.701 257.562C733.179 250.132 736.1 241.432 734.715 233.696C733.639 227.702 729.979 222.725 724.407 219.68L378.951 31.2462C374.886 29.0274 370.147 27.9795 365.178 27.9795Z" fill="#5C4099" fill-opacity="0.1"/>
<path d="M360.775 639.432C354.341 639.432 348.236 637.821 343.322 634.459L15.6044 409.893C9.95623 406.023 6.51108 400.204 5.90379 393.516C5.12583 384.963 8.95601 375.814 16.4102 368.415L356.826 30.5599C370.527 16.9614 392.441 13.2819 405.678 22.3516L733.4 246.913C739.048 250.783 742.494 256.602 743.101 263.29C743.875 271.848 740.048 280.997 732.594 288.392L392.179 626.247C383.558 634.8 371.69 639.432 360.775 639.432ZM388.202 18.8785C377.695 18.8785 366.232 23.3637 357.893 31.6395L17.4781 369.495C10.3494 376.572 6.68168 385.276 7.41599 393.377C7.97961 399.609 11.1946 405.027 16.4618 408.635L344.179 633.201C356.841 641.878 377.894 638.277 391.099 625.167L731.515 287.312C738.643 280.235 742.311 271.531 741.577 263.429C741.013 257.198 737.798 251.78 732.531 248.172L404.813 23.6098C400.145 20.4106 394.338 18.8785 388.202 18.8785Z" fill="#5C4099" fill-opacity="0.1"/>
<path d="M337.198 646.743C329.466 646.743 322.174 644.504 316.749 639.904L9.84959 379.829C4.56261 375.348 1.63716 369.073 1.61731 362.158C1.58953 353.311 6.19782 344.261 14.2672 337.339L382.832 20.9454C397.673 8.20426 419.841 6.39032 432.245 16.9048L739.144 276.979C744.431 281.46 747.356 287.736 747.376 294.65C747.404 303.497 742.796 312.547 734.726 319.47L366.161 635.863C357.814 643.031 347.145 646.743 337.198 646.743ZM411.795 11.59C402.218 11.59 391.914 15.1821 383.836 22.1163L15.2714 338.506C7.55129 345.134 3.13346 353.756 3.16124 362.15C3.18109 368.608 5.91195 374.467 10.8496 378.65L317.749 638.725C329.597 648.767 350.868 646.957 365.161 634.692L733.726 318.299C741.45 311.67 745.864 303.053 745.836 294.654C745.816 288.196 743.085 282.338 738.148 278.154L431.248 18.0796C426.096 13.7175 419.162 11.59 411.795 11.59Z" fill="#5C4099" fill-opacity="0.1"/>
<path d="M313.18 652.135C304.106 652.135 295.58 649.122 289.805 643.109L6.74091 348.435C1.85085 343.342 -0.51078 336.614 0.0925393 329.49C0.858597 320.432 6.23679 311.589 14.846 305.226L409.584 13.4058C425.488 1.64903 447.748 1.77605 459.195 13.6995L742.259 308.374C747.149 313.466 749.511 320.194 748.907 327.319C748.141 336.376 742.763 345.22 734.154 351.582L339.416 643.403C331.537 649.225 322.09 652.135 313.18 652.135ZM435.832 6.22157C427.251 6.22157 418.133 9.03573 410.517 14.668L15.7787 306.488C7.5307 312.585 2.3827 321.015 1.65634 329.625C1.09271 336.293 3.29965 342.588 7.87615 347.351L290.94 642.025C301.863 653.397 323.194 653.449 338.487 642.14L733.225 350.32C741.473 344.223 746.621 335.789 747.348 327.184C747.911 320.515 745.704 314.22 741.128 309.457L458.064 14.7831C452.578 9.07542 444.477 6.22157 435.832 6.22157Z" fill="#5C4099" fill-opacity="0.1"/>
<path d="M288.848 655.519C278.397 655.519 268.613 651.57 262.683 643.981L6.3758 315.918C1.91838 310.21 0.159798 303.042 1.43391 295.731C3.02954 286.566 9.14619 278.028 18.2158 272.304L436.884 8.07417C453.769 -2.57919 475.941 -0.447715 486.316 12.8333L742.62 340.896C747.078 346.604 748.836 353.772 747.562 361.084C745.966 370.249 739.85 378.786 730.78 384.51L312.112 648.74C304.88 653.305 296.68 655.519 288.848 655.519ZM460.171 2.86657C452.634 2.86657 444.719 5.00995 437.733 9.41577L19.0613 273.646C10.3688 279.131 4.51419 287.28 2.99795 296.001C1.80322 302.863 3.44629 309.587 7.62587 314.934L263.934 642.997C273.817 655.646 295.044 657.619 311.258 647.391L729.927 383.156C738.619 377.671 744.474 369.526 745.99 360.802C747.185 353.939 745.542 347.215 741.362 341.869L485.054 13.8057C479.434 6.60953 470.13 2.86657 460.171 2.86657Z" fill="#5C4099" fill-opacity="0.1"/>
<path d="M264.334 656.814C252.489 656.814 241.447 651.746 235.589 642.442L8.85142 282.49C4.86634 276.163 3.76288 268.566 5.75145 261.104C8.19251 251.939 15.0037 243.81 24.4504 238.793L464.556 5.04253C482.31 -4.3883 504.232 -0.204763 513.413 14.3702L740.15 374.322C744.135 380.649 745.235 388.246 743.25 395.708C740.809 404.873 733.998 413.002 724.551 418.019L284.445 651.769C278.019 655.183 271.046 656.814 264.334 656.814ZM484.688 1.6052C478.226 1.6052 471.51 3.17701 465.31 6.47145L25.2045 240.222C16.1587 245.029 9.63733 252.789 7.31137 261.521C5.44187 268.546 6.47385 275.687 10.2168 281.629L236.954 641.58C245.694 655.457 266.659 659.386 283.687 650.34L723.793 416.59C732.839 411.783 739.36 404.023 741.686 395.291C743.556 388.266 742.524 381.125 738.781 375.183L512.044 15.2315C506.483 6.40795 495.98 1.6052 484.688 1.6052Z" fill="#5C4099" fill-opacity="0.1"/>
<path d="M239.78 655.937C226.539 655.937 214.27 649.538 208.729 638.428L14.2263 248.382C10.7612 241.432 10.3642 233.434 13.1109 225.861C16.3935 216.811 23.8556 209.182 33.5762 204.935L492.381 4.4149C510.905 -3.68229 532.391 2.58509 540.269 18.3865L734.772 408.433C738.238 415.383 738.635 423.381 735.888 430.954C732.605 440.004 725.147 447.633 715.423 451.88L256.618 652.396C251.121 654.797 245.365 655.937 239.78 655.937ZM509.238 2.50968C503.868 2.50968 498.331 3.60518 493.036 5.91923L34.2351 206.44C24.9234 210.508 17.7907 217.792 14.659 226.421C12.0671 233.565 12.4363 241.103 15.699 247.648L210.202 637.694C217.696 652.726 238.225 658.648 255.963 650.892L714.768 450.375C724.08 446.307 731.216 439.023 734.344 430.394C736.936 423.25 736.567 415.712 733.304 409.167L538.801 19.1208C533.542 8.57463 521.864 2.50968 509.238 2.50968Z" fill="#5C4099" fill-opacity="0.1"/>
<path d="M215.349 652.824C200.71 652.824 187.286 644.878 182.321 631.891L22.5564 213.834C19.6629 206.261 20.024 197.893 23.5725 190.273C27.6806 181.449 35.7182 174.42 45.6214 170.982L520.156 6.27199C539.327 -0.384375 560.197 7.98272 566.671 24.9193L726.44 442.976C729.333 450.549 728.972 458.917 725.424 466.537C721.316 475.361 713.278 482.39 703.375 485.828L228.84 650.538C224.367 652.09 219.802 652.824 215.349 652.824ZM533.66 5.64883C529.385 5.64883 524.999 6.35535 520.704 7.84777L46.1691 172.554C36.6907 175.844 29.0025 182.56 25.0849 190.975C21.727 198.183 21.3816 206.094 24.1125 213.238L183.881 631.295C190.037 647.398 209.955 655.325 228.292 648.962L702.827 484.252C712.306 480.961 719.99 474.25 723.911 465.831C727.269 458.619 727.615 450.712 724.884 443.568L565.115 25.5147C560.4 13.1864 547.619 5.64883 533.66 5.64883Z" fill="#5C4099" fill-opacity="0.1"/>
<path d="M191.22 647.435C175.181 647.435 160.709 637.703 156.589 622.81L33.8652 179.108C31.6028 170.924 32.7698 162.227 37.1597 154.626C42.0538 146.144 50.5954 139.789 60.5859 137.194L547.671 10.675C567.37 5.55871 587.435 16.0255 592.408 34.0021L715.132 477.7C717.395 485.885 716.228 494.581 711.838 502.182C706.944 510.664 698.402 517.019 688.411 519.615L201.326 646.133C197.944 647.015 194.547 647.435 191.22 647.435ZM557.781 11.068C554.59 11.068 551.339 11.4689 548.092 12.3143L61.0106 138.833C51.4527 141.314 43.2962 147.379 38.6244 155.472C34.4647 162.68 33.3532 170.912 35.4966 178.656L158.221 622.358C162.948 639.453 182.103 649.384 200.898 644.498L687.979 517.98C697.537 515.499 705.693 509.434 710.365 501.341C714.525 494.133 715.636 485.9 713.493 478.156L590.773 34.4546C586.859 20.3123 573.074 11.068 557.781 11.068Z" fill="#5C4099" fill-opacity="0.1"/>
<path d="M167.581 639.723C150.125 639.723 134.752 627.955 131.747 611.173L48.1637 144.462C46.5919 135.678 48.6162 126.711 53.8675 119.213C59.5792 111.057 68.3074 105.595 78.4408 103.837L574.699 17.6652C594.783 14.1803 613.867 26.7269 617.253 45.6362L700.84 512.344C702.412 521.128 700.388 530.094 695.137 537.592C689.425 545.748 680.697 551.21 670.563 552.969L174.305 639.14C172.043 639.533 169.796 639.723 167.581 639.723ZM581.419 18.8004C579.303 18.8004 577.156 18.983 574.993 19.3561L78.7346 105.528C69.0498 107.211 60.7184 112.418 55.2726 120.198C50.2873 127.319 48.3623 135.825 49.8547 144.156L133.442 610.863C136.661 628.844 154.86 640.763 174.008 637.441L670.266 551.27C679.946 549.587 688.278 544.379 693.728 536.599C698.713 529.479 700.638 520.973 699.146 512.641L615.558 45.9379C612.7 29.9896 598.054 18.8004 581.419 18.8004Z" fill="#5C4099" fill-opacity="0.1"/>
<path d="M144.599 629.677C135.97 629.677 127.706 626.775 121.026 621.342C113.468 615.197 108.848 606.548 108.015 596.99L65.4211 110.167C64.5836 100.609 67.6358 91.2896 74.0064 83.9268C80.373 76.5678 89.2958 72.0429 99.1315 71.1816L601.01 27.2743C610.846 26.4169 620.42 29.3224 627.965 35.4627C635.522 41.611 640.143 50.256 640.98 59.8138L683.574 546.637C685.296 566.356 670.174 583.844 649.859 585.623L147.981 629.53C146.849 629.629 145.722 629.677 144.599 629.677ZM604.396 28.8738C603.324 28.8738 602.245 28.9215 601.165 29.0167L99.2863 72.9241C89.9071 73.7457 81.3971 78.0603 75.3282 85.0699C69.2672 92.0755 66.3658 100.935 67.1596 110.016L109.749 596.84C110.543 605.921 114.937 614.145 122.125 619.988C129.317 625.839 138.45 628.613 147.83 627.792L649.708 583.884C669.062 582.189 683.474 565.55 681.835 546.792L639.242 59.9686C638.448 50.8871 634.05 42.6629 626.866 36.8202C620.503 31.6364 612.624 28.8738 604.396 28.8738Z" fill="#5C4099" fill-opacity="0.1"/>
<path d="M626.398 617.292H122.602C102.205 617.292 85.6094 600.696 85.6094 580.299V76.5028C85.6094 56.105 102.205 39.5098 122.602 39.5098H626.398C646.796 39.5098 663.391 56.105 663.391 76.5028V580.299C663.391 600.696 646.796 617.292 626.398 617.292ZM122.602 41.28C103.181 41.28 87.3796 57.0815 87.3796 76.5028V580.299C87.3796 599.72 103.181 615.521 122.602 615.521H626.398C645.819 615.521 661.621 599.72 661.621 580.299V76.5028C661.621 57.0815 645.819 41.28 626.398 41.28H122.602Z" fill="#5C4099" fill-opacity="0.1"/>
</svg>
