<svg width="30" height="30" viewBox="0 0 30 30" fill="none" xmlns="http://www.w3.org/2000/svg">
<rect width="30" height="30" fill="#544577"/>
<path d="M8.74495 20L5.93695 11.36H7.23895L9.63295 18.734L12.057 11.36H13.359L10.551 20H8.74495ZM14.3838 20V11.36H15.6378V20H14.3838ZM17.4396 20V11.36H20.9316C21.0156 11.36 21.1196 11.364 21.2436 11.372C21.3676 11.376 21.4856 11.388 21.5976 11.408C22.0776 11.484 22.4776 11.648 22.7976 11.9C23.1216 12.152 23.3636 12.47 23.5236 12.854C23.6836 13.238 23.7636 13.662 23.7636 14.126C23.7636 14.594 23.6836 15.02 23.5236 15.404C23.3636 15.788 23.1216 16.106 22.7976 16.358C22.4776 16.61 22.0776 16.774 21.5976 16.85C21.4856 16.866 21.3656 16.878 21.2376 16.886C21.1136 16.894 21.0116 16.898 20.9316 16.898H18.6936V20H17.4396ZM18.6936 15.71H20.8836C20.9636 15.71 21.0516 15.706 21.1476 15.698C21.2476 15.69 21.3416 15.676 21.4296 15.656C21.6856 15.596 21.8916 15.486 22.0476 15.326C22.2036 15.162 22.3156 14.974 22.3836 14.762C22.4516 14.55 22.4856 14.338 22.4856 14.126C22.4856 13.914 22.4516 13.704 22.3836 13.496C22.3156 13.284 22.2036 13.098 22.0476 12.938C21.8916 12.774 21.6856 12.662 21.4296 12.602C21.3416 12.578 21.2476 12.562 21.1476 12.554C21.0516 12.546 20.9636 12.542 20.8836 12.542H18.6936V15.71Z" fill="white"/>
</svg>
