<svg width="48" height="60" viewBox="0 0 48 60" fill="none" xmlns="http://www.w3.org/2000/svg">
<path d="M7.71631 35.2832C7.82236 35.4923 8.00534 35.6525 8.22705 35.7303C8.44876 35.8081 8.69204 35.7975 8.9061 35.7008C9.12016 35.604 9.28843 35.4285 9.37579 35.211C9.46314 34.9934 9.46282 34.7506 9.37489 34.5333C5.89224 27.4068 7.75517 16.4369 13.1145 11.8813C19.1434 9.72532 29.2102 9.75656 35.1788 11.9863C40.4442 16.5744 42.2507 27.4705 38.7918 34.5383C38.708 34.7551 38.7105 34.9955 38.7987 35.2105C38.887 35.4255 39.0544 35.5987 39.2666 35.6945C39.4789 35.7904 39.7198 35.8018 39.9402 35.7262C40.1605 35.6507 40.3435 35.494 40.4517 35.2882C44.1286 27.7542 42.346 16.4357 36.9001 11.1939L38.7881 4.72597C38.8441 4.53404 38.8352 4.32904 38.7627 4.14267C38.6902 3.9563 38.5581 3.79892 38.3869 3.69486C34.0227 1.16333 29.0402 -0.112899 23.9925 0.00783776C18.9473 -0.1119 13.9674 1.16431 9.60556 3.69486C9.43383 3.79844 9.30126 3.95571 9.22848 4.14219C9.15569 4.32868 9.14679 4.53392 9.20314 4.72597L11.1287 11.3164C5.7932 16.5907 4.06693 27.8042 7.71631 35.2832ZM23.9925 1.8251C28.4693 1.72254 32.896 2.7816 36.8387 4.89845L35.3205 10.0965C27.9286 7.91871 20.0626 7.91871 12.6707 10.0965L11.1576 4.89845C15.0966 2.78285 19.5194 1.7238 23.9925 1.8251ZM43.1734 40.2276C40.6298 38.9625 37.9599 37.9675 35.2077 37.2592C34.2674 36.9805 33.2708 36.748 32.2465 36.5531C31.3781 35.6476 30.7717 34.5247 30.4914 33.3035C32.5775 31.4529 34.0917 29.0481 34.8566 26.3706C38.6602 25.6907 38.3029 17.3931 34.0443 18.3304C31.621 12.5187 16.3853 12.6887 13.9608 18.3304C9.67953 17.3406 9.28337 25.677 13.1095 26.3656C13.8764 29.0533 15.3989 31.466 17.4973 33.3185C17.2242 34.5673 16.6228 35.7212 15.7547 36.6618C11.9391 37.2673 8.24381 38.4721 4.80658 40.2313C3.36098 40.9638 2.14684 42.0807 1.29854 43.4585C0.450226 44.8363 0.000828573 46.4212 7.67117e-05 48.0378V50.4038C-0.00542513 51.4819 0.285119 52.541 0.84023 53.4663C1.39534 54.3916 2.19385 55.1479 3.14925 55.6531C8.22944 58.1511 13.7731 59.574 19.4317 59.8325C20.8696 59.9375 22.3828 60 23.9975 60C34.4091 60 41.0848 57.6378 44.852 55.6568C45.8071 55.1513 46.6053 54.395 47.1601 53.4697C47.715 52.5445 48.0054 51.4855 47.9999 50.4075V48.0428C47.9981 46.4232 47.5466 44.8358 46.6953 43.4563C45.8441 42.0769 44.6264 40.9594 43.1771 40.2276H43.1734ZM24.089 43.6196C22.0017 42.6773 17.5512 40.1938 17.1751 37.8216C18.0548 36.8509 18.7088 35.6987 19.0907 34.4471C20.573 35.3418 22.2734 35.8133 24.0062 35.8102C25.739 35.8071 27.4377 35.3295 28.9168 34.4296C29.3016 35.6303 29.9432 36.7335 30.7973 37.6629C30.4638 39.2065 27.4551 41.5449 24.089 43.6196ZM14.6678 25.1421C14.6274 25.0115 14.5593 24.8911 14.4682 24.789C14.3771 24.687 14.265 24.6056 14.1396 24.5505C14.0141 24.4954 13.8783 24.4678 13.7413 24.4696C13.6042 24.4714 13.4691 24.5025 13.3452 24.5609C12.0728 24.1397 11.9537 20.4277 13.1183 20.1227C13.7627 19.949 13.9846 20.4402 14.5073 20.4239C14.724 20.422 14.933 20.3435 15.0969 20.2022C15.2609 20.061 15.3692 19.8662 15.4025 19.6528C16.5408 14.7109 31.5182 14.5022 32.5775 19.619C32.5991 19.7725 32.6591 19.9182 32.7521 20.0424C32.8451 20.1667 32.9679 20.2656 33.1094 20.33C33.2508 20.3944 33.4062 20.4222 33.5613 20.4109C33.7164 20.3996 33.8661 20.3495 33.9966 20.2652C36.1003 19.0216 36.1278 24.1909 34.5821 24.5459C34.4604 24.4891 34.3276 24.4597 34.1933 24.4598C34.0589 24.4598 33.9262 24.4893 33.8045 24.5462C33.6829 24.6031 33.5752 24.686 33.4893 24.7889C33.4033 24.8919 33.3411 25.0125 33.3071 25.1421C32.6626 28.0209 31.0377 30.5882 28.7087 32.4074C22.8529 36.6643 16.0318 31.6425 14.6678 25.1421ZM1.82414 50.4038V48.0378C1.77274 42.0773 8.5387 40.4051 13.2675 39.0152C13.2763 39.0152 14.1024 38.8053 15.4827 38.5578C16.2725 41.3524 19.982 43.6084 22.2023 44.732C21.1128 45.3494 20.0309 45.9206 19.033 46.408C18.8797 46.4827 18.7504 46.5988 18.66 46.743C18.5696 46.8873 18.5216 47.054 18.5215 47.2242V57.9353C13.4733 57.5944 8.5403 56.2744 3.99923 54.0495C3.33748 53.6976 2.78497 53.1718 2.40156 52.5291C2.01815 51.8865 1.81846 51.1515 1.82414 50.4038ZM46.1821 50.4038C46.1875 51.1519 45.9872 51.8871 45.6031 52.5298C45.219 53.1725 44.6657 53.6981 44.0033 54.0495C41.0672 55.5931 34.567 58.1815 23.9987 58.1815C22.72 58.1815 21.5027 58.1415 20.3418 58.0715V47.7891C23.0359 46.438 31.0505 42.1648 32.4596 38.4528C33.2281 38.614 33.9866 38.7928 34.7162 39.0102C39.4387 40.3988 46.231 42.0773 46.1734 48.0428L46.1821 50.4038ZM41.1274 49.0664C41.2066 49.2943 41.1918 49.5442 41.0862 49.7613C40.9807 49.9783 40.793 50.1446 40.5645 50.2238C38.2774 51.0143 35.9242 51.5999 33.5328 51.9735C33.3062 51.9704 33.0888 51.8832 32.9231 51.7291C32.7574 51.575 32.6551 51.3649 32.6361 51.1397C32.6172 50.9146 32.683 50.6904 32.8207 50.511C32.9584 50.3315 33.1582 50.2095 33.3811 50.1688C35.6186 49.7952 37.8213 49.2375 39.9665 48.5015C40.0799 48.462 40.2 48.4453 40.32 48.4523C40.4399 48.4594 40.5572 48.49 40.6651 48.5426C40.7731 48.5951 40.8695 48.6684 40.9489 48.7584C41.0282 48.8483 41.0889 48.953 41.1274 49.0664Z" fill="#5C4099"/>
</svg>
