<svg width="50" height="60" viewBox="0 0 50 60" fill="none" xmlns="http://www.w3.org/2000/svg">
<path d="M44.9375 39.3688C41.3176 37.5809 37.4754 36.2874 33.5132 35.5228C32.5947 34.5342 31.9649 33.3113 31.6926 31.9879C34.2284 29.8977 36.061 27.0752 36.9415 23.9037C39.7098 23.539 40.4632 19.0485 39.3511 16.8439C44.1405 -5.56982 5.99253 -5.63977 10.6424 16.7852C9.48928 18.9811 10.2352 23.5303 13.0246 23.905C13.905 27.0794 15.7407 29.9039 18.281 31.9929C17.9974 33.3741 17.3254 34.6449 16.3446 35.6552C9.29626 37.2128 0.249296 39.1027 0.0450702 47.5128C-0.159156 50.6193 0.231863 53.9194 3.30023 55.4558C7.21913 57.5305 14.1628 60 24.993 60C35.959 59.8576 50.2872 57.252 49.941 49.9923C50.2984 45.6667 49.0817 41.4447 44.9375 39.3688ZM14.5613 22.6634C14.5162 22.532 14.4439 22.4116 14.3492 22.3101C14.2545 22.2086 14.1395 22.1283 14.0118 22.0744C13.884 22.0205 13.7463 21.9943 13.6078 21.9974C13.4692 22.0005 13.3329 22.033 13.2077 22.0926C11.4419 21.7066 11.4232 15.6597 13.915 17.1074C14.0443 17.1993 14.1949 17.2564 14.3525 17.2732C14.5101 17.2899 14.6693 17.2658 14.8149 17.2031C14.9605 17.1404 15.0877 17.0413 15.1841 16.9152C15.2806 16.789 15.3431 16.6402 15.3658 16.4829C15.438 16.1794 15.9124 14.7866 16.428 13.3239C19.8911 14.891 23.7699 15.2796 27.4736 14.4306C27.7001 14.367 27.8929 14.2174 28.0114 14.0136C28.1299 13.8098 28.1646 13.5678 28.1083 13.3388C28.052 13.1098 27.909 12.9117 27.7097 12.7865C27.5103 12.6614 27.2703 12.6189 27.0403 12.6682C20.3282 14.2108 16.8476 11.0843 15.8004 11.143C15.6553 11.1638 15.5176 11.2203 15.3996 11.3074C15.2816 11.3946 15.1869 11.5098 15.1242 11.6427C14.4804 13.2765 14.1018 14.5318 13.8789 15.1664C13.3344 15.0361 12.7631 15.0771 12.2426 15.2838C9.44196 -2.71315 40.625 -2.68317 37.7709 15.305C37.2374 15.0801 36.6463 15.0315 36.0835 15.1664C35.8668 14.5006 35.502 13.4389 34.888 11.7264C34.8025 11.5429 34.6744 11.3827 34.5144 11.2592C29.9542 8.44874 24.1923 9.809 23.9495 9.8677C23.7161 9.92468 23.5149 10.0723 23.3901 10.2781C23.2653 10.4839 23.2271 10.731 23.2839 10.965C23.3407 11.1991 23.4879 11.4009 23.693 11.5261C23.8982 11.6513 24.1445 11.6896 24.3779 11.6327C24.4289 11.6202 29.4113 10.4498 33.304 12.6632C33.903 14.3432 34.5194 16.1356 34.6016 16.4866C34.6184 16.6183 34.6636 16.7448 34.7341 16.8571C34.8045 16.9695 34.8986 17.0651 35.0097 17.1373C35.1207 17.2095 35.2462 17.2565 35.3772 17.2751C35.5083 17.2936 35.6418 17.2833 35.7684 17.2448C38.5616 15.3412 38.6612 21.7703 36.675 22.0751C36.5539 22.0179 36.4217 21.9882 36.2879 21.9881C36.1541 21.988 36.0218 22.0175 35.9007 22.0745C35.7795 22.1315 35.6724 22.2147 35.5869 22.318C35.5014 22.4213 35.4396 22.5422 35.4061 22.6721C32.0637 35.8763 17.8762 35.7364 14.5613 22.6634ZM19.8936 33.0746C21.447 33.9569 23.2017 34.4207 24.9868 34.4207C26.7719 34.4207 28.5266 33.9569 30.08 33.0746C30.4716 34.4314 31.173 35.6781 32.1285 36.7157C31.659 38.1896 28.2831 40.9863 24.9955 43.0473C21.7018 40.9826 18.3183 38.1759 17.8588 36.7057C18.8083 35.6697 19.5049 34.4267 19.8936 33.0746ZM1.85695 49.9923C1.57926 46.3699 2.31522 42.755 5.86925 40.9901C9.13888 39.3145 12.6419 38.1434 16.2599 37.5163C17.2822 39.9109 21.1165 42.6801 23.2696 44.0966L19.5773 46.3324L16.956 40.684C16.8546 40.4657 16.6709 40.2968 16.4453 40.2143C16.2197 40.1319 15.9707 40.1427 15.753 40.2444C15.5354 40.3461 15.3669 40.5303 15.2847 40.7566C15.2025 40.9829 15.2133 41.2327 15.3147 41.451L18.3607 48.0175C18.4151 48.1323 18.4928 48.2345 18.5889 48.3175C18.6849 48.4006 18.7972 48.4626 18.9185 48.4996C19.0398 48.5366 19.1675 48.5479 19.2933 48.5326C19.4192 48.5173 19.5405 48.4759 19.6495 48.4109L24.0877 45.7241V58.1676C13.8814 57.909 1.41612 55.2322 1.85695 49.9923ZM48.1291 49.9923C48.5762 55.2222 36.1196 57.9103 25.8983 58.1676V45.7729L30.2568 48.4109C30.3659 48.476 30.4873 48.5176 30.6132 48.5329C30.7392 48.5481 30.867 48.5368 30.9883 48.4997C31.1097 48.4625 31.222 48.4003 31.318 48.317C31.414 48.2338 31.4915 48.1313 31.5457 48.0162L34.5929 41.451C34.6835 41.2342 34.6869 40.9906 34.6023 40.7714C34.5178 40.5521 34.3519 40.3743 34.1394 40.2751C33.9269 40.1758 33.6844 40.163 33.4627 40.2393C33.2411 40.3155 33.0574 40.4749 32.9504 40.684L30.3353 46.3324L26.6841 44.1216C28.8634 42.6963 32.7972 39.8559 33.766 37.4252C39.2876 38.9478 48.0432 40.3605 48.1353 47.5191L48.1291 49.9923ZM13.7892 50.6543C13.7565 50.6561 13.7236 50.6561 13.6909 50.6543L11.8665 50.4507C11.6984 51.2164 11.9649 53.2462 10.6711 53.0875C9.36973 52.9626 10.0658 51.0453 10.0646 50.2558C9.30124 50.086 7.28015 50.3583 7.4383 49.058C7.56283 47.7527 9.47309 48.4496 10.2601 48.4484C10.4282 47.6815 10.1555 45.6542 11.4543 45.8141C12.7569 45.939 12.0595 47.8563 12.0608 48.6445L13.8851 48.8431C14.1122 48.8721 14.3198 48.9862 14.4665 49.1625C14.6131 49.3388 14.6879 49.5641 14.6758 49.7934C14.6636 50.0226 14.5655 50.2388 14.4011 50.3985C14.2366 50.5582 14.0181 50.6496 13.7892 50.6543Z" fill="#5C4099"/>
</svg>
