<svg width="44" height="44" viewBox="0 0 44 44" fill="none" xmlns="http://www.w3.org/2000/svg">
<rect width="44" height="44" fill="#5C4099"/>
<path d="M22.1014 10C18.662 10 15.874 12.7845 15.874 16.2193C15.874 19.6541 18.662 22.4388 22.1014 22.4388C25.5407 22.4388 28.3288 19.6541 28.3288 16.2193C28.3288 12.7845 25.5407 10 22.1014 10ZM22.1014 18.7903C20.6797 18.7903 19.5271 17.6392 19.5271 16.2193C19.5271 14.7995 20.6797 13.6484 22.1014 13.6484C23.5231 13.6484 24.6756 14.7995 24.6756 16.2193C24.6756 17.6392 23.5231 18.7903 22.1014 18.7903Z" fill="white"/>
<path d="M24.2999 27.3875C26.793 26.8802 28.287 25.7011 28.366 25.6379C29.0955 25.0536 29.2127 23.9893 28.6277 23.2606C28.0427 22.5321 26.9771 22.415 26.2474 22.9992C26.232 23.0117 24.6386 24.2324 22.0168 24.2342C19.3951 24.2324 17.768 23.0117 17.7526 22.9992C17.0229 22.415 15.9573 22.5321 15.3723 23.2606C14.7873 23.9893 14.9045 25.0536 15.634 25.6379C15.7141 25.702 17.2698 26.9118 19.8327 27.4071L16.2608 31.1352C15.6116 31.8075 15.6311 32.878 16.3043 33.5263C16.6329 33.8427 17.0564 34 17.4795 34C17.9232 34 18.3664 33.8269 18.6986 33.4827L22.0169 29.9525L25.6704 33.5056C26.3323 34.1656 27.4042 34.1646 28.065 33.5037C28.7257 32.8428 28.7249 31.7721 28.0631 31.1123L24.2999 27.3875Z" fill="white"/>
<path d="M22.0168 24.2342C22.0126 24.2342 22.0209 24.2342 22.0168 24.2343C22.0127 24.2342 22.021 24.2342 22.0168 24.2342Z" fill="white"/>
</svg>
