<svg width="20" height="20" viewBox="0 0 20 20" fill="none" xmlns="http://www.w3.org/2000/svg">
<path fill-rule="evenodd" clip-rule="evenodd" d="M0 0H6.42862V6.42857H0V0ZM2.14287 2.14286V4.28571H4.28575V2.14286H2.14287Z" fill="#2E2E2E"/>
<path fill-rule="evenodd" clip-rule="evenodd" d="M13.5714 0H20V6.42857H13.5714V0ZM15.7143 2.14286V4.28571H17.8571V2.14286H15.7143Z" fill="#2E2E2E"/>
<path fill-rule="evenodd" clip-rule="evenodd" d="M0 13.5714H6.42862V20H0V13.5714ZM2.14287 15.7143V17.8571H4.28575V15.7143H2.14287Z" fill="#2E2E2E"/>
<path d="M2.14287 8.92857H0V11.0714H2.14287V8.92857Z" fill="#2E2E2E"/>
<path d="M6.42862 8.92857H4.28575V11.0714H6.42862V8.92857Z" fill="#2E2E2E"/>
<path d="M10.9524 8.92857H8.80949V11.0714H10.9524V8.92857Z" fill="#2E2E2E"/>
<path d="M10.9524 13.3929H8.80949V15.5357H10.9524V13.3929Z" fill="#2E2E2E"/>
<path d="M10.9524 17.8571H8.80949V20H10.9524V17.8571Z" fill="#2E2E2E"/>
<path d="M10.9524 4.46429H8.80949V6.60714H10.9524V4.46429Z" fill="#2E2E2E"/>
<path d="M10.9524 0H8.80949V2.14286H10.9524V0Z" fill="#2E2E2E"/>
<path d="M15.4763 8.92857H13.3334V11.0714H15.4763V8.92857Z" fill="#2E2E2E"/>
<path d="M20 8.92857H17.8571V11.0714H20V8.92857Z" fill="#2E2E2E"/>
<path d="M15.4763 13.3929H13.3334V15.5357H15.4763V13.3929Z" fill="#2E2E2E"/>
<path d="M20 13.3929H17.8571V15.5357H20V13.3929Z" fill="#2E2E2E"/>
<path d="M15.4763 17.8571H13.3334V20H15.4763V17.8571Z" fill="#2E2E2E"/>
<path d="M20 17.8571H17.8571V20H20V17.8571Z" fill="#2E2E2E"/>
</svg>
