<svg width="303" height="398" viewBox="0 0 303 398" fill="none" xmlns="http://www.w3.org/2000/svg">
<path d="M154.971 43.7554C151.327 43.7554 148.018 44.7839 145.303 46.8097C141.016 50.01 138.75 55.3264 138.927 61.7791L147.9 393.469C148.261 406.802 159.076 421.069 172.008 425.281L493.892 530.049C500.323 532.141 506.289 531.484 510.693 528.197C514.98 524.997 517.246 519.681 517.069 513.228L508.097 181.538C507.735 168.205 496.92 153.938 483.988 149.726L162.104 44.9576C159.639 44.1515 157.237 43.7554 154.971 43.7554ZM501.022 530.105C498.874 530.105 496.597 529.726 494.25 528.962L172.366 424.193C159.855 420.121 149.394 406.326 149.047 393.438L140.074 61.7478C139.911 55.6774 142.011 50.6945 145.991 47.7236C150.09 44.6658 155.683 44.0681 161.749 46.0418L483.633 150.81C496.141 154.883 506.605 168.678 506.953 181.566L515.925 513.256C516.089 519.326 513.989 524.309 510.008 527.28C507.495 529.153 504.422 530.105 501.022 530.105Z" fill="#5C4099" fill-opacity="0.05"/>
<path d="M136.149 52.6428C131.894 52.6428 128.125 53.9632 125.219 56.5276C121.075 60.1901 119.205 65.9165 119.956 72.6576L157.817 412.499C159.336 426.155 171.358 439.836 184.61 442.998L514.406 521.688C520.872 523.231 526.684 522.088 530.78 518.47C534.927 514.808 536.794 509.081 536.043 502.34L498.185 162.498C496.662 148.846 484.645 135.162 471.393 132L141.597 53.31C139.716 52.8652 137.891 52.6428 136.149 52.6428ZM519.839 521.195C518.188 521.195 516.46 520.983 514.674 520.559L184.877 441.868C172.063 438.811 160.442 425.579 158.968 412.371L121.107 72.5291C120.398 66.1737 122.132 60.8016 125.984 57.3963C129.784 54.0362 135.231 52.9868 141.318 54.4393L471.115 133.129C483.928 136.187 495.553 149.419 497.024 162.627L534.882 502.469C535.591 508.821 533.856 514.196 530.004 517.598C527.32 519.975 523.813 521.195 519.839 521.195Z" fill="#5C4099" fill-opacity="0.05"/>
<path d="M118.289 63.459C113.359 63.459 109.097 65.1234 106.048 68.2959C102.082 72.4275 100.646 78.55 102.005 85.5378L169.353 431.155C172.058 445.04 185.226 458.008 198.707 460.065L534.107 511.259C540.563 512.243 546.181 510.623 549.946 506.704C553.912 502.572 555.348 496.45 553.989 489.462L486.641 143.841C483.937 129.96 470.765 116.988 457.283 114.931L121.883 63.737C120.656 63.5493 119.453 63.459 118.289 63.459ZM537.706 510.363C536.6 510.363 535.46 510.276 534.292 510.095L198.888 458.901C185.859 456.913 173.132 444.366 170.511 430.929L103.163 85.3119C101.877 78.7133 103.205 72.9591 106.896 69.1125C110.39 65.4744 115.646 63.9803 121.706 64.9045L457.109 116.099C470.139 118.086 482.866 130.634 485.487 144.071L552.835 489.688C554.121 496.286 552.793 502.041 549.101 505.887C546.282 508.823 542.315 510.363 537.706 510.363Z" fill="#5C4099" fill-opacity="0.05"/>
<path d="M101.556 76.1635C95.8754 76.1635 91.0849 78.2344 87.9527 82.088C84.2573 86.6295 83.2735 93.2942 85.2446 100.372L182.472 449.276C186.379 463.29 200.632 475.428 214.246 476.328L552.834 498.782C559.216 499.206 564.618 497.121 568.039 492.913C571.734 488.371 572.722 481.707 570.747 474.629L473.52 125.724C469.613 111.711 455.36 99.5732 441.746 98.6697L103.158 76.2156C102.62 76.1808 102.084 76.1635 101.556 76.1635ZM554.436 497.639C553.936 497.639 553.428 497.621 552.914 497.587L214.326 475.132C201.178 474.26 187.408 462.515 183.626 448.953L86.3986 100.049C84.5318 93.3498 85.4359 87.0778 88.881 82.842C92.0549 78.9433 97.1129 77.0148 103.082 77.4109L441.67 99.865C454.817 100.737 468.591 112.482 472.37 126.044L569.596 474.948C571.463 481.648 570.56 487.92 567.111 492.155C564.215 495.724 559.752 497.639 554.436 497.639Z" fill="#5C4099" fill-opacity="0.05"/>
<path d="M425.383 83.3609C425.206 83.3609 425.029 83.3644 424.851 83.3644L85.5924 90.7101C79.3175 90.8456 74.1725 93.3856 71.1064 97.8647C67.6752 102.879 67.2129 109.891 69.8445 117.108L197.125 466.7C202.169 480.561 217.107 491.635 230.62 491.635C230.797 491.635 230.974 491.635 231.148 491.628L570.407 484.283C576.685 484.147 581.827 481.604 584.893 477.128C588.324 472.114 588.786 465.102 586.158 457.885L458.874 108.296C453.83 94.4386 438.892 83.3609 425.383 83.3609ZM230.609 490.426C217.573 490.426 203.149 479.706 198.265 466.29L70.9848 116.698C68.4922 109.853 68.9024 103.24 72.111 98.5562C74.9478 94.4107 79.7451 92.0583 85.6202 91.9297L424.879 84.584C438.075 84.2921 452.784 95.1231 457.734 108.713L585.014 458.305C587.507 465.15 587.097 471.763 583.888 476.447C581.051 480.592 576.254 482.945 570.379 483.073L231.12 490.419C230.95 490.426 230.78 490.426 230.609 490.426Z" fill="#5C4099" fill-opacity="0.05"/>
<path d="M409.451 69.0133C408.519 69.0133 407.595 69.0654 406.68 69.1662L69.3543 107.18C63.222 107.872 58.3619 110.857 55.6712 115.589C52.5529 121.073 52.6573 128.397 55.9564 135.684L213.234 483.285C219.551 497.25 235.737 507.359 249.315 505.833L586.641 467.819C592.774 467.127 597.634 464.139 600.324 459.406C603.443 453.923 603.338 446.598 600.039 439.312L442.761 91.7106C436.869 78.6906 422.39 69.0133 409.451 69.0133ZM246.52 504.759C234.044 504.759 220.065 495.391 214.36 482.781L57.0826 135.18C53.9504 128.255 53.8253 121.337 56.7455 116.201C59.2345 111.823 63.7642 109.053 69.4933 108.407L406.819 70.3928C419.901 68.916 435.524 78.7114 441.635 92.2249L598.916 439.826C602.049 446.751 602.174 453.67 599.254 458.802C596.761 463.184 592.235 465.949 586.506 466.596L249.18 504.61C248.304 504.711 247.414 504.759 246.52 504.759Z" fill="#5C4099" fill-opacity="0.05"/>
<path d="M392.445 55.7021C390.704 55.7021 388.993 55.8689 387.338 56.2129L54.6117 125.549C48.6602 126.789 44.1131 130.212 41.8117 135.188C39.0619 141.13 39.7676 148.719 43.7411 156.006L230.731 498.87C238.244 512.645 255.257 521.578 268.662 518.788L601.392 449.452C607.344 448.211 611.891 444.789 614.192 439.813C616.942 433.871 616.236 426.282 612.263 418.992L425.273 76.1269C418.685 64.059 404.797 55.7021 392.445 55.7021ZM263.514 518.051C251.611 518.051 238.206 509.958 231.834 498.269L44.8431 155.404C41.0574 148.465 40.3691 141.29 42.9486 135.709C45.0796 131.105 49.3102 127.929 54.8655 126.772L387.592 57.436C400.486 54.75 416.898 63.4022 424.164 76.7281L611.154 419.593C614.94 426.532 615.628 433.708 613.049 439.288C610.918 443.892 606.687 447.068 601.132 448.225L268.401 517.561C266.82 517.895 265.179 518.051 263.514 518.051Z" fill="#5C4099" fill-opacity="0.05"/>
<path d="M374.48 43.5511C371.869 43.5511 369.328 43.9055 366.936 44.6457L41.5199 145.738C35.7769 147.52 31.574 151.371 29.6794 156.579C27.3572 162.962 28.6956 170.76 33.3435 177.97L249.518 513.298C258.205 526.773 275.935 534.428 289.058 530.349L614.474 429.257C620.217 427.474 624.42 423.624 626.315 418.415C628.637 412.032 627.299 404.238 622.651 397.025L406.476 61.6965C399.374 50.6744 386.216 43.5511 374.48 43.5511ZM281.473 530.182C270.175 530.182 257.468 523.278 250.592 512.61L34.4176 177.282C29.9852 170.409 28.6955 163.021 30.8786 157.014C32.6307 152.191 36.5453 148.615 41.8989 146.954L367.315 45.8618C379.917 41.9457 397.01 49.3609 405.409 62.3879L621.583 397.72C626.016 404.593 627.306 411.98 625.122 417.985C623.37 422.808 619.456 426.383 614.102 428.044L288.686 529.136C286.399 529.845 283.969 530.182 281.473 530.182Z" fill="#5C4099" fill-opacity="0.05"/>
<path d="M355.669 32.6847C352.116 32.6847 348.692 33.3032 345.601 34.6062L30.2388 167.653C24.7357 169.974 20.8977 174.244 19.4341 179.675C17.6021 186.472 19.5941 194.412 24.9025 201.462L269.493 526.432C279.324 539.497 297.676 545.762 310.392 540.394L625.758 407.347C631.261 405.026 635.099 400.756 636.563 395.325C638.395 388.528 636.403 380.588 631.094 373.538L386.504 48.5679C379.061 38.6787 366.737 32.6847 355.669 32.6847ZM300.283 541.04C289.628 541.04 277.728 535.23 270.525 525.657L25.9349 200.688C20.8699 193.957 18.9544 186.42 20.6822 180.012C22.0415 174.974 25.6153 171.006 30.743 168.841L346.109 35.7946C358.318 30.645 375.974 36.7224 385.475 49.3428L630.069 374.313C635.134 381.043 637.049 388.58 635.322 394.988C633.962 400.026 630.389 403.994 625.261 406.156L309.895 539.202C306.944 540.449 303.676 541.04 300.283 541.04Z" fill="#5C4099" fill-opacity="0.05"/>
<path d="M336.131 23.2058C331.57 23.2058 327.214 24.1718 323.474 26.2081L20.9115 191.17C15.6726 194.027 12.2309 198.711 11.2193 204.357C9.93651 211.526 12.6064 219.542 18.5406 226.346L290.539 538.125C301.479 550.666 320.317 555.451 332.53 548.793L635.092 383.83C640.331 380.974 643.773 376.29 644.784 370.64C646.067 363.472 643.401 355.459 637.463 348.652L365.468 36.8722C357.869 28.1748 346.473 23.2058 336.131 23.2058ZM319.834 550.502C309.874 550.502 298.871 545.686 291.526 537.263L19.5279 225.484C13.8544 218.979 11.2957 211.363 12.5089 204.587C13.451 199.34 16.6564 194.982 21.5372 192.321L324.099 27.3582C335.804 20.9785 353.913 25.6347 364.47 37.7375L636.469 349.517C642.142 356.022 644.701 363.638 643.487 370.411C642.545 375.658 639.34 380.015 634.459 382.68L331.897 547.643C328.337 549.585 324.186 550.502 319.834 550.502Z" fill="#5C4099" fill-opacity="0.05"/>
<path d="M315.979 15.2164C310.344 15.2164 304.997 16.6272 300.693 19.5703L13.6669 216.164C8.72006 219.552 5.70267 224.646 5.17079 230.501C4.48942 237.989 7.84402 245.998 14.3726 252.475L312.52 548.246C324.521 560.151 343.714 563.372 355.307 555.432L642.337 358.842C647.284 355.454 650.301 350.36 650.833 344.505C651.511 337.014 648.16 329.004 641.631 322.531L343.484 26.7597C335.933 19.2715 325.539 15.2164 315.979 15.2164ZM340.001 558.473C330.799 558.473 320.759 554.546 313.455 547.301L15.3079 251.53C9.06438 245.335 5.85209 237.715 6.49522 230.622C6.98887 225.167 9.8047 220.424 14.4178 217.265L301.444 20.6718C312.534 13.0759 330.972 16.2276 342.538 27.7048L640.686 323.476C646.929 329.671 650.141 337.292 649.498 344.384C649.005 349.839 646.189 354.582 641.576 357.741L354.549 554.331C350.461 557.132 345.375 558.473 340.001 558.473Z" fill="#5C4099" fill-opacity="0.05"/>
<path d="M295.329 8.81789C288.557 8.81789 282.171 10.7777 277.418 14.805L8.62577 242.484C3.99525 246.407 1.43304 251.901 1.41566 257.954C1.39132 265.699 5.42743 273.622 12.4949 279.682L335.297 556.664C348.295 567.819 367.71 569.407 378.574 560.202L647.367 332.523C651.997 328.6 654.559 323.106 654.577 317.053C654.601 309.308 650.565 301.385 643.498 295.325L320.696 18.3423C313.385 12.0669 304.041 8.81789 295.329 8.81789ZM360.664 564.855C352.275 564.855 343.251 561.71 336.176 555.639L13.3744 278.66C6.61284 272.857 2.74355 265.31 2.76788 257.961C2.78527 252.307 5.17705 247.178 9.50165 243.516L278.295 15.837C288.672 7.04576 307.301 8.63029 319.82 19.3674L642.622 296.35C649.387 302.153 653.252 309.697 653.228 317.05C653.21 322.703 650.819 327.832 646.494 331.494L377.701 559.173C373.189 562.992 367.116 564.855 360.664 564.855Z" fill="#5C4099" fill-opacity="0.05"/>
<path d="M274.293 4.09353C266.346 4.09353 258.879 6.73091 253.821 11.9952L5.90392 269.964C1.62104 274.422 -0.447359 280.312 0.0810491 286.549C0.751988 294.479 5.4624 302.22 13.0026 307.791L358.728 563.261C372.657 573.553 392.153 573.442 402.179 563.004L650.096 305.035C654.379 300.577 656.447 294.687 655.919 288.45C655.248 280.52 650.537 272.779 642.997 267.208L297.272 11.7381C290.372 6.64055 282.098 4.09353 274.293 4.09353ZM381.717 569.55C374.201 569.55 366.216 567.087 359.544 562.156L13.8195 306.686C6.59564 301.348 2.08685 293.968 1.45068 286.431C0.957031 280.593 2.88995 275.082 6.8982 270.913L254.815 12.9438C264.382 2.98854 283.064 2.94339 296.459 12.8431L642.184 268.313C649.408 273.651 653.917 281.035 654.553 288.568C655.046 294.406 653.113 299.917 649.105 304.086L401.188 562.055C396.384 567.052 389.288 569.55 381.717 569.55Z" fill="#5C4099" fill-opacity="0.05"/>
<path d="M252.983 1.13094C243.83 1.13094 235.26 4.58836 230.067 11.2322L5.58387 298.431C1.67991 303.428 0.139681 309.703 1.2556 316.104C2.6531 324.127 8.01027 331.601 15.9538 336.612L382.638 567.929C397.426 577.255 416.845 575.389 425.932 563.763L650.412 276.564C654.316 271.567 655.856 265.292 654.74 258.891C653.342 250.868 647.986 243.394 640.042 238.383L273.358 7.06592C267.024 3.06991 259.842 1.13094 252.983 1.13094ZM403.034 572.488C396.432 572.488 389.5 570.612 383.382 566.755L16.6943 335.437C9.08104 330.635 3.95341 323.502 2.62543 315.867C1.57905 309.859 3.01811 303.973 6.67872 299.293L231.162 12.0939C239.818 1.01975 258.41 -0.707208 272.611 8.24734L639.294 239.568C646.908 244.37 652.035 251.5 653.363 259.138C654.41 265.146 652.971 271.032 649.31 275.713L424.827 562.911C419.904 569.211 411.756 572.488 403.034 572.488Z" fill="#5C4099" fill-opacity="0.05"/>
<path d="M231.514 0C221.141 0 211.47 4.43727 206.338 12.5822L7.75425 327.697C4.26398 333.236 3.29753 339.887 5.03919 346.42C7.17716 354.443 13.1426 361.559 21.4164 365.951L406.876 570.586C422.426 578.842 441.626 575.179 449.667 562.42L648.251 247.305C651.741 241.766 652.704 235.115 650.966 228.582C648.828 220.559 642.863 213.443 634.589 209.051L249.129 4.41645C243.501 1.42813 237.393 0 231.514 0ZM424.508 573.595C418.849 573.595 412.967 572.219 407.537 569.335L22.0769 364.701C14.1542 360.493 8.44257 353.699 6.40542 346.055C4.76805 339.904 5.67189 333.653 8.95011 328.451L207.534 13.3363C215.189 1.18837 233.551 -2.25168 248.465 5.66738L633.925 210.301C641.848 214.509 647.559 221.303 649.596 228.947C651.234 235.098 650.33 241.349 647.052 246.551L448.467 561.666C443.597 569.39 434.399 573.595 424.508 573.595Z" fill="#5C4099" fill-opacity="0.05"/>
<path d="M210.008 0.76661C198.411 0.76661 187.666 6.36796 182.813 16.0939L12.4602 357.555C9.42538 363.639 9.07772 370.641 11.4834 377.271C14.3583 385.194 20.8939 391.872 29.4075 395.59L431.244 571.133C447.469 578.222 466.286 572.735 473.187 558.902L643.539 217.441C646.574 211.357 646.922 204.355 644.516 197.725C641.641 189.802 635.109 183.124 626.592 179.406L224.755 3.86612C219.94 1.76387 214.9 0.76661 210.008 0.76661ZM446.009 572.801C441.305 572.801 436.456 571.842 431.818 569.816L29.9847 394.273C21.8291 390.712 15.5821 384.335 12.8392 376.781C10.5691 370.526 10.8925 363.928 13.7501 358.198L184.103 16.7367C190.666 3.5777 208.646 -1.60669 224.182 5.18306L626.019 180.723C634.174 184.284 640.425 190.661 643.164 198.215C645.434 204.469 645.111 211.068 642.253 216.798L471.901 558.259C467.294 567.492 457.067 572.801 446.009 572.801Z" fill="#5C4099" fill-opacity="0.05"/>
<path d="M188.612 3.49285C175.791 3.49285 164.034 10.4494 159.685 21.8189L19.7576 387.802C17.2233 394.432 17.5396 401.756 20.6475 408.428C24.2455 416.152 31.2852 422.306 39.9587 425.316L455.573 569.509C472.363 575.336 490.642 568.011 496.312 553.184L636.243 187.202C638.777 180.572 638.461 173.247 635.353 166.575C631.755 158.851 624.715 152.697 616.042 149.688L200.428 5.49434C196.51 4.1357 192.512 3.49285 188.612 3.49285ZM467.399 570.055C463.655 570.055 459.814 569.436 456.052 568.13L40.4384 423.939C32.1369 421.059 25.4033 415.18 21.9721 407.813C19.0311 401.503 18.7287 394.577 21.1204 388.323L161.051 22.3402C166.443 8.24293 183.887 1.30375 199.948 6.87385L615.562 151.067C623.864 153.948 630.594 159.824 634.028 167.194C636.969 173.508 637.272 180.429 634.88 186.684L494.949 552.663C490.82 563.456 479.626 570.055 467.399 570.055Z" fill="#5C4099" fill-opacity="0.05"/>
<path d="M167.479 8.21125C153.431 8.21125 140.756 16.7314 137.148 29.7689L29.6617 418.202C27.6802 425.367 28.7023 432.981 32.5471 439.635C36.8335 447.06 44.3146 452.624 53.0646 454.896L479.671 565.655C496.924 570.134 514.497 560.971 518.853 545.234L626.339 156.804C628.32 149.639 627.298 142.026 623.453 135.371C619.167 127.946 611.686 122.383 602.936 120.11L176.33 9.35099C173.368 8.57959 170.392 8.21125 167.479 8.21125ZM488.525 565.311C485.73 565.311 482.883 564.96 480.039 564.22L53.4366 453.461C45.0655 451.289 37.9217 445.98 33.83 438.895C30.1868 432.584 29.2133 425.378 31.0905 418.598L138.576 30.165C142.717 15.1991 159.494 6.50514 175.954 10.7826L602.557 121.542C610.928 123.713 618.072 129.023 622.164 136.108C625.807 142.418 626.78 149.625 624.903 156.404L517.421 544.838C513.993 557.218 501.919 565.311 488.525 565.311Z" fill="#5C4099" fill-opacity="0.05"/>
<path d="M146.773 14.96C131.484 14.96 118.02 25.2628 115.389 39.9542L42.1833 448.531C40.8067 456.221 42.5797 464.07 47.1789 470.634C52.1814 477.775 59.8259 482.556 68.701 484.095L503.341 559.533C520.932 562.584 537.646 551.6 540.611 535.046L613.82 126.473C615.197 118.783 613.424 110.934 608.824 104.37C603.822 97.2292 596.178 92.4479 587.302 90.9085L152.662 15.4708C150.681 15.1268 148.713 14.96 146.773 14.96ZM509.227 558.539C507.374 558.539 505.493 558.38 503.598 558.053L68.9584 482.615C60.4761 481.142 53.1792 476.583 48.4096 469.772C44.0433 463.539 42.3573 456.092 43.6644 448.798L116.873 40.2252C119.692 24.4844 135.632 14.0496 152.402 16.958L587.042 92.3958C595.52 93.8691 602.817 98.428 607.59 105.239C611.957 111.472 613.643 118.919 612.336 126.212L539.127 534.782C536.624 548.744 523.796 558.539 509.227 558.539Z" fill="#5C4099" fill-opacity="0.05"/>
<path d="M126.646 23.756C119.088 23.756 111.85 26.296 105.999 31.053C99.3804 36.432 95.334 44.0036 94.604 52.3709L57.299 478.554C56.5655 486.922 59.2387 495.081 64.8183 501.526C70.3944 507.969 78.2093 511.93 86.8237 512.684L526.386 551.122C535.001 551.873 543.386 549.329 549.994 543.954C556.613 538.571 560.66 531.003 561.393 522.636L598.698 96.4521C600.207 79.1893 586.962 63.8794 569.17 62.3227L129.607 23.8845C128.617 23.7977 127.629 23.756 126.646 23.756ZM529.352 549.722C528.413 549.722 527.467 549.68 526.522 549.597L86.9593 511.158C78.7447 510.439 71.2913 506.662 65.9759 500.526C60.6675 494.393 58.1263 486.637 58.8216 478.687L96.123 52.5029C96.8183 44.5526 100.667 37.3528 106.962 32.2379C113.262 27.1161 121.261 24.6872 129.475 25.4065L569.038 63.8447C585.989 65.3284 598.611 79.8947 597.176 96.3166L559.871 522.5C559.175 530.451 555.324 537.65 549.031 542.765C543.459 547.303 536.558 549.722 529.352 549.722Z" fill="#5C4099" fill-opacity="0.05"/>
<path d="M548.621 34.5973H107.379C89.5141 34.5973 74.9794 49.1254 74.9794 66.9824V508.024C74.9794 525.881 89.5141 540.409 107.379 540.409H548.621C566.486 540.409 581.02 525.881 581.02 508.024V66.9824C581.02 49.1254 566.486 34.5973 548.621 34.5973ZM107.379 538.86C90.3693 538.86 76.5298 525.026 76.5298 508.024V66.9824C76.5298 49.9802 90.3693 36.1471 107.379 36.1471H548.621C565.631 36.1471 579.47 49.9802 579.47 66.9824V508.024C579.47 525.026 565.631 538.86 548.621 538.86H107.379Z" fill="#5C4099" fill-opacity="0.05"/>
</svg>
