<svg width="46" height="46" viewBox="0 0 46 46" fill="none" xmlns="http://www.w3.org/2000/svg">
<path d="M0 15.772C0 10.25 0 7.49 1.074 5.382C2.0192 3.52688 3.52766 2.01877 5.383 1.074C7.49 0 10.253 0 15.772 0H30.228C35.75 0 38.509 0 40.618 1.074C42.4728 2.01937 43.9805 3.52781 44.925 5.383C46 7.49 46 10.25 46 15.772V30.228C46 35.75 46 38.509 44.925 40.618C43.9799 42.4726 42.4718 43.9803 40.617 44.925C38.51 46 35.747 46 30.228 46H15.772C10.25 46 7.491 46 5.382 44.925C3.52703 43.9801 2.01894 42.472 1.074 40.617C0 38.51 0 35.747 0 30.228V15.772Z" fill="#301B47"/>
<path d="M8.476 7.63C10.008 5.668 12.32 4.397 15.306 4.397C18.994 4.397 21.306 6.047 23.004 7.64C24.701 6.044 27.014 4.397 30.701 4.397C33.687 4.397 35.997 5.67 37.531 7.63C39.035 9.555 39.74 12.072 39.74 14.57C39.74 20.565 34.976 24.996 30.318 28.372L23.978 33.088C23.4199 33.5031 23.04 34.1145 22.9149 34.7988C22.7898 35.483 22.9288 36.1892 23.304 36.775C23.5052 37.0899 23.7687 37.3603 24.0782 37.5696C24.3878 37.7789 24.7369 37.9226 25.1041 37.9919C25.4713 38.0612 25.8488 38.0547 26.2134 37.9727C26.5779 37.8906 26.9219 37.7349 27.224 37.515L33.168 33.196L34.743 35.371L28.799 39.691C28.201 40.1255 27.5205 40.433 26.7992 40.5948C26.078 40.7565 25.3312 40.769 24.605 40.6315C23.8787 40.494 23.1882 40.2094 22.576 39.7952C21.9638 39.381 21.4428 38.846 21.045 38.223C20.3037 37.0643 20.0289 35.6678 20.2759 34.3147C20.5228 32.9615 21.2732 31.7521 22.376 30.93L28.729 26.203L28.735 26.197C33.425 22.799 37.053 19.085 37.053 14.567C37.053 12.54 36.477 10.644 35.415 9.283C34.382 7.959 32.843 7.082 30.699 7.082C27.432 7.082 25.665 8.732 23.957 10.466C23.8321 10.5927 23.6833 10.6934 23.5192 10.7621C23.3551 10.8308 23.1789 10.8662 23.001 10.8662C22.8231 10.8662 22.6469 10.8308 22.4828 10.7621C22.3187 10.6934 22.1699 10.5927 22.045 10.466C20.338 8.731 18.571 7.082 15.305 7.082C13.16 7.082 11.621 7.962 10.588 9.283C9.526 10.642 8.95 12.54 8.95 14.568C8.95 18.95 12.443 23.071 16.922 26.181C17.2151 26.3836 17.4156 26.6944 17.4796 27.0449C17.5435 27.3954 17.4656 27.7569 17.263 28.05C17.0604 28.3431 16.7496 28.5436 16.3991 28.6076C16.0486 28.6715 15.6871 28.5936 15.394 28.391C10.754 25.168 6.268 20.346 6.268 14.568C6.268 12.072 6.972 9.555 8.476 7.63Z" fill="white"/>
<path d="M18.035 12.964C18.035 12.858 18.121 12.772 18.227 12.772H20.527C20.634 12.772 20.719 12.858 20.719 12.964V16.561C20.719 16.668 20.805 16.754 20.911 16.754H25.101C25.1263 16.754 25.1513 16.749 25.1747 16.7393C25.1981 16.7296 25.2193 16.7153 25.2371 16.6974C25.255 16.6795 25.2691 16.6582 25.2787 16.6348C25.2883 16.6114 25.2931 16.5863 25.293 16.561V12.964C25.293 12.858 25.379 12.772 25.485 12.772H27.785C27.891 12.772 27.977 12.858 27.977 12.964V23.231C27.977 23.2819 27.9568 23.3308 27.9208 23.3668C27.8848 23.4028 27.8359 23.423 27.785 23.423H25.485C25.4341 23.423 25.3852 23.4028 25.3492 23.3668C25.3132 23.3308 25.293 23.2819 25.293 23.231V19.634C25.293 19.5831 25.2728 19.5342 25.2368 19.4982C25.2008 19.4622 25.1519 19.442 25.101 19.442H20.911C20.8601 19.442 20.8112 19.4622 20.7752 19.4982C20.7392 19.5342 20.719 19.5831 20.719 19.634V23.231C20.719 23.2819 20.6988 23.3308 20.6628 23.3668C20.6268 23.4028 20.5779 23.423 20.527 23.423H18.227C18.1761 23.423 18.1272 23.4028 18.0912 23.3668C18.0552 23.3308 18.035 23.2819 18.035 23.231V12.964ZM37.085 30.334C36.6687 30.334 36.2695 30.4994 35.9752 30.7937C35.6809 31.088 35.5155 31.4872 35.5155 31.9035C35.5155 32.3198 35.6809 32.719 35.9752 33.0133C36.2695 33.3076 36.6687 33.473 37.085 33.473C37.4944 33.4627 37.8836 33.2928 38.1695 32.9996C38.4554 32.7063 38.6154 32.313 38.6154 31.9035C38.6154 31.494 38.4554 31.1006 38.1695 30.8074C37.8836 30.5142 37.4944 30.3443 37.085 30.334ZM32.834 31.904C32.8332 30.7758 33.2805 29.6936 34.0774 28.8951C34.8744 28.0966 35.9558 27.6473 37.084 27.646C38.2123 27.6468 39.2941 28.0957 40.0915 28.894C40.8889 29.6923 41.3365 30.7747 41.336 31.903C41.3365 32.4617 41.227 33.0151 41.0136 33.5315C40.8003 34.0479 40.4873 34.5172 40.0925 34.9126C39.6978 35.308 39.229 35.6217 38.7129 35.8359C38.1969 36.0502 37.6437 36.1606 37.085 36.161C36.5263 36.1606 35.9731 36.0502 35.4571 35.8359C34.941 35.6217 34.4722 35.308 34.0775 34.9126C33.6827 34.5172 33.3697 34.0479 33.1564 33.5315C32.943 33.0151 32.8335 32.4627 32.834 31.904Z" fill="white"/>
</svg>
