<svg width="175" height="20" viewBox="0 0 175 20" fill="none" xmlns="http://www.w3.org/2000/svg">
<path fill-rule="evenodd" clip-rule="evenodd" d="M115.042 10.0167C115.042 6.12501 112.483 3.80001 108.642 3.78334C104.75 3.78334 102.242 6.34167 102.242 9.98334C102.242 13.9 104.8 16.2167 108.642 16.2167C112.533 16.2167 115.042 13.65 115.042 10.0167ZM112.792 10C112.792 12.5333 111.208 14.2417 108.658 14.2417C105.925 14.2167 104.492 12.3583 104.492 9.99167C104.492 7.49167 106.067 5.77501 108.625 5.75834C111.358 5.77501 112.792 7.64167 112.792 10ZM140.942 10.0167C140.942 6.12501 138.383 3.80001 134.542 3.78334C130.65 3.78334 128.133 6.34167 128.133 9.98334C128.133 13.9 130.7 16.2167 134.542 16.2167C138.433 16.2167 140.942 13.65 140.942 10.0167ZM138.692 10C138.692 12.5333 137.1 14.2417 134.558 14.2417C131.825 14.2167 130.392 12.3583 130.392 9.99167C130.392 7.49167 131.958 5.77501 134.525 5.75834C137.258 5.77501 138.692 7.64167 138.692 10ZM143.175 16.025V3.96668H148.367C151.033 3.96668 152.4 4.96668 152.4 6.96667C152.4 8.34167 151.85 9.25834 150.625 9.74167C152.092 9.99167 152.758 10.9417 152.758 12.5083C152.758 15.0083 150.983 16.025 148.075 16.025H143.175ZM148.058 9.06667C149.408 9.06667 150.267 8.46667 150.267 7.43334C150.267 6.46668 149.633 5.95001 148.108 5.95001H145.317V9.06667H148.067H148.058ZM148.217 14.05C149.85 14.05 150.608 13.5083 150.608 12.3583C150.608 11.2 149.75 10.7583 148.25 10.7583H145.317V14.05H148.217ZM158.933 7.72501H157.317V3.96668H155.183V16.025H158.958C162.442 16.025 164.317 14.6083 164.317 11.8083C164.317 9.08334 162.725 7.72501 158.933 7.72501ZM157.317 14.05V9.70834H159.125C161.208 9.70834 162.108 10.275 162.108 11.7583C162.108 13.3917 161.083 14.05 159.092 14.05H157.317Z" fill="#FF0D65"/>
<path d="M168.683 10.8083H174.183V8.82501H168.683V5.95001H174.817V3.96668H166.55V16.025H175V14.05H168.683V10.8V10.8083Z" fill="#FF0D65"/>
<path fill-rule="evenodd" clip-rule="evenodd" d="M119.417 12.275V16.025H117.275V3.96668H121.25C125.025 3.96668 126.633 5.32501 126.633 8.05001C126.633 10.8583 124.758 12.275 121.25 12.275H119.417ZM119.417 5.94168V10.2917H121.408C123.392 10.2917 124.408 9.63334 124.408 8.00001C124.408 6.51668 123.525 5.95001 121.442 5.95001H119.408L119.417 5.94168ZM90.1334 14.05C90.8167 12.4083 91.3083 10.1333 91.3667 6.46668L91.4 3.96668H99.8V14.05H101.183V18.2667H99.1833V16.025H90.8334V18.275H88.8333V14.05H90.1334ZM92.2167 14.05H97.6583V5.95001H93.3417V6.51668C93.275 9.66667 92.9 12.15 92.2167 14.05Z" fill="#FF0D65"/>
<path d="M82.6917 3.79168C80.7917 3.79168 79.4167 4.36668 78.7334 4.85834V7.85834C79.1703 7.21167 79.7603 6.68307 80.4509 6.31959C81.1415 5.95611 81.9113 5.76903 82.6917 5.77501C83.95 5.80834 84.9417 6.25834 84.9417 7.37501C84.9417 8.27501 84.4167 9.01667 82.875 9.01667H81.0833V10.7917H82.8917C84.75 10.7917 85.5417 11.2917 85.5417 12.3583C85.5417 13.5833 84.375 14.2 82.925 14.2167C80.725 14.2333 79.175 13.275 78.4333 12.05V14.7C79.075 15.425 80.725 16.2167 82.8917 16.2C86.1 16.1833 87.7583 14.5833 87.7583 12.4917C87.7583 10.9083 86.875 9.94167 85.025 9.66667C86.4083 9.16667 87.15 8.24167 87.15 6.83334C87.15 4.70834 85.3667 3.80834 82.6917 3.79168Z" fill="#FF0D65"/>
<path d="M32.4084 13.8667C33.1834 13.875 33.95 13.6833 34.6334 13.3083L35.2 13L36.8667 14.2333C36.2727 14.8391 35.5593 15.3149 34.7717 15.6305C33.9842 15.9461 33.1397 16.0946 32.2917 16.0667C30.598 16.0974 28.9603 15.4597 27.7334 14.2917C27.1523 13.7105 26.6937 13.0187 26.3845 12.2572C26.0754 11.4958 25.922 10.6801 25.9334 9.85834C25.9334 8.13334 26.5834 6.57501 27.7417 5.48334C28.9895 4.35196 30.6244 3.74335 32.3084 3.78334C33.9584 3.78334 35.3917 4.28334 36.475 5.23334L36.5917 5.33334L34.75 6.70001C34.0682 6.21105 33.2473 5.95399 32.4084 5.96668C30.0834 5.96668 28.4084 7.63334 28.4084 9.91667C28.3943 10.4435 28.4885 10.9676 28.6852 11.4565C28.8818 11.9454 29.1768 12.3888 29.5518 12.7591C29.9268 13.1294 30.3738 13.4187 30.8652 13.6093C31.3565 13.7998 31.8818 13.8874 32.4084 13.8667Z" fill="#21A038"/>
<path fill-rule="evenodd" clip-rule="evenodd" d="M44.75 8.60001H41.625V5.93334H46.625L49.3167 3.93334H39.05V15.9H44.4167C47.4334 15.9 49.1667 14.5333 49.1667 12.15C49.1667 9.85834 47.6 8.60001 44.75 8.60001ZM44.3084 13.9083H41.625V10.5917H44.3084C45.9417 10.5917 46.7 11.15 46.7 12.2583C46.7 13.375 45.8917 13.9083 44.3084 13.9083Z" fill="#21A038"/>
<path d="M60.5833 3.93334L57.8917 5.93334H54.1417V8.85001H59.6417V10.85H54.1417V13.9083H60.5833V15.9083H51.5667V3.92501H60.5833V3.93334Z" fill="#21A038"/>
<path fill-rule="evenodd" clip-rule="evenodd" d="M67.8917 3.93334C71.025 3.93334 72.975 5.57501 72.975 8.21667C72.975 10.8583 71.025 12.5167 67.8917 12.5167H65.5583V15.9H62.975V3.93334H67.8917ZM65.55 10.5167H67.8334C69.4834 10.5167 70.3917 9.70834 70.3917 8.22501C70.3917 6.74167 69.4834 5.91668 67.8334 5.91668H65.55V10.5167Z" fill="#21A038"/>
<path d="M17.7917 3.88334C18.2584 4.49168 18.6667 5.15834 18.9834 5.87501L9.93336 12.5833L6.15003 10.1917V7.33334L9.93336 9.71667L17.7917 3.88334Z" fill="#21A038"/>
<path d="M2.29169 10C2.29169 9.86667 2.29169 9.75001 2.30836 9.61667L2.7035e-05 9.50001V10C-0.00427038 12.6518 1.04486 15.1967 2.91669 17.075L4.53336 15.4333C3.09711 13.9899 2.2911 12.0363 2.29169 10Z" fill="url(#paint0_linear_205_2890)"/>
<path d="M9.93336 2.30835L10.3167 2.31668L10.4334 0.0166802L9.93336 1.35329e-05C7.18336 1.35329e-05 4.70836 1.11668 2.90836 2.92501L4.53336 4.56668C5.23964 3.85277 6.08068 3.28625 7.00766 2.90001C7.93465 2.51376 8.92912 2.31548 9.93336 2.31668V2.30835Z" fill="url(#paint1_linear_205_2890)"/>
<path d="M9.93336 17.6917L9.55003 17.6833L9.43336 19.9833L9.93336 20C12.6834 20 15.1584 18.8833 16.9584 17.075L15.3334 15.4333C14.6268 16.1469 13.7857 16.7131 12.8588 17.0994C11.9319 17.4856 10.9375 17.6841 9.93336 17.6833V17.6917Z" fill="url(#paint2_linear_205_2890)"/>
<path d="M14.2417 3.65001L16.175 2.21668C14.4127 0.77944 12.2074 -0.00375448 9.93336 1.35329e-05V2.30835C11.5334 2.30835 13.0167 2.80834 14.2417 3.65001Z" fill="url(#paint3_linear_205_2890)"/>
<path d="M19.8667 10C19.8667 9.39167 19.8084 8.79167 19.7 8.20834L17.5667 9.79167V10C17.5667 12.25 16.6 14.2917 15.0584 15.7L16.6 17.4167C17.632 16.4769 18.4557 15.3314 19.0184 14.0541C19.581 12.7767 19.8699 11.3958 19.8667 10Z" fill="#21A038"/>
<path d="M9.93336 17.6917C8.86373 17.6919 7.80609 17.4664 6.82961 17.0299C5.85312 16.5933 4.97978 15.9556 4.26669 15.1583L2.56669 16.7083C3.49365 17.7447 4.62902 18.5736 5.8985 19.1409C7.16797 19.7081 8.54292 20.0009 9.93336 20V17.6917Z" fill="url(#paint4_linear_205_2890)"/>
<path d="M4.80836 4.30001L3.26669 2.58334C2.23475 3.52315 1.41097 4.66858 0.848366 5.94593C0.285759 7.22327 -0.00321833 8.60425 2.7035e-05 10H2.29169C2.29087 8.927 2.51433 7.86566 2.94772 6.88408C3.38111 5.90249 4.01487 5.02232 4.80836 4.30001Z" fill="url(#paint5_linear_205_2890)"/>
<defs>
<linearGradient id="paint0_linear_205_2890" x1="130.285" y1="19.2299" x2="129.771" y2="-2.34889" gradientUnits="userSpaceOnUse">
<stop offset="0.14" stop-color="#F2E913"/>
<stop offset="0.3" stop-color="#E7E518"/>
<stop offset="0.58" stop-color="#CADB26"/>
<stop offset="0.89" stop-color="#A3CD39"/>
</linearGradient>
<linearGradient id="paint1_linear_205_2890" x1="15.3101" y1="14.5985" x2="49.5395" y2="-54.0302" gradientUnits="userSpaceOnUse">
<stop offset="0.06" stop-color="#0FA8E0"/>
<stop offset="0.54" stop-color="#0099F9"/>
<stop offset="0.92" stop-color="#0291EB"/>
</linearGradient>
<linearGradient id="paint2_linear_205_2890" x1="-3.48837" y1="13.9051" x2="70.203" y2="-73.9939" gradientUnits="userSpaceOnUse">
<stop offset="0.12" stop-color="#A3CD39"/>
<stop offset="0.28" stop-color="#86C339"/>
<stop offset="0.87" stop-color="#21A038"/>
</linearGradient>
<linearGradient id="paint3_linear_205_2890" x1="-13.5514" y1="4.24663" x2="41.8206" y2="91.1345" gradientUnits="userSpaceOnUse">
<stop offset="0.06" stop-color="#0291EB"/>
<stop offset="0.79" stop-color="#0C8ACB"/>
</linearGradient>
<linearGradient id="paint4_linear_205_2890" x1="13.6595" y1="5.23236" x2="46.8161" y2="75.9492" gradientUnits="userSpaceOnUse">
<stop offset="0.13" stop-color="#F2E913"/>
<stop offset="0.3" stop-color="#EBE716"/>
<stop offset="0.53" stop-color="#D9E01F"/>
<stop offset="0.8" stop-color="#BBD62D"/>
<stop offset="0.98" stop-color="#A3CD39"/>
</linearGradient>
<linearGradient id="paint5_linear_205_2890" x1="0.858361" y1="10.2834" x2="3.61669" y2="3.15008" gradientUnits="userSpaceOnUse">
<stop offset="0.07" stop-color="#A3CD39"/>
<stop offset="0.26" stop-color="#81C55F"/>
<stop offset="0.92" stop-color="#0FA8E0"/>
</linearGradient>
</defs>
</svg>
