<svg width="87" height="25" viewBox="0 0 87 25" fill="none" xmlns="http://www.w3.org/2000/svg">
<path fill-rule="evenodd" clip-rule="evenodd" d="M10.6035 2.90345H8.92188C5.83893 2.90345 4.22738 4.44263 4.22738 6.72808C4.22738 9.3167 5.34846 10.5177 7.64899 12.0686L9.5408 13.3279L4.06389 21.4436H0L4.91638 14.1908C2.09034 12.1852 0.502148 10.2379 0.502148 6.93797C0.502148 2.79851 3.39825 0 8.89852 0H14.3638V21.4436H10.6035V2.90345Z" fill="#E63F0C"/>
<path fill-rule="evenodd" clip-rule="evenodd" d="M35.9561 18.5518C36.9838 16.208 37.264 11.9753 37.264 9.29338V8.82696H41.1878V18.5518H35.9561ZM44.878 5.93517H34.0877V7.26446C34.0877 11.0541 33.8424 15.9632 32.5345 18.5518H31.3784V25H34.8V21.4552H43.103V25H46.5246V18.5518H44.878V5.93517Z" fill="#000003"/>
<path fill-rule="evenodd" clip-rule="evenodd" d="M26.1234 12.0686H21.1836V5.93517H17.4817V21.4552H21.1836V14.972H26.1234V21.4552H29.8252V5.93517H26.1234V12.0686Z" fill="#000003"/>
<path fill-rule="evenodd" clip-rule="evenodd" d="M83.4149 8.52379C84.8513 8.52379 86.2409 9.01353 86.9883 9.47995V6.36661C86.2059 5.93517 84.8396 5.62034 83.0062 5.62034C78.2766 5.62034 75.8243 8.97854 75.8243 13.701C75.8243 18.8899 78.2183 21.7584 83.1697 21.7584C84.8863 21.7584 86.0891 21.4552 87 20.8022V17.8055C86.0658 18.4585 84.9447 18.8549 83.3915 18.8549C80.7523 18.8549 79.6546 16.8144 79.6546 13.6077C79.6546 10.2495 80.9976 8.52379 83.4149 8.52379Z" fill="#000003"/>
<path fill-rule="evenodd" clip-rule="evenodd" d="M75.3338 5.93517H71.5969L66.3769 13.0947V5.93517H62.675V21.4552H66.3769V13.8293L71.8538 21.4552H76.0462L70.1021 13.0947L75.3338 5.93517Z" fill="#000003"/>
<path fill-rule="evenodd" clip-rule="evenodd" d="M56.4157 12.2901H51.2541C51.3475 9.8181 52.2467 8.52379 54.0217 8.52379C55.8552 8.52379 56.4157 10.0396 56.4157 11.9753V12.2901ZM54.0918 5.62034C49.5842 5.62034 47.4354 9.04851 47.4354 13.736C47.4354 19.1348 50.1097 21.7584 54.8392 21.7584C57.1981 21.7584 58.9498 21.1404 60.0358 20.4058V17.4091C58.8797 18.1786 56.9529 18.8549 55.1545 18.8549C52.4452 18.8549 51.4176 17.5956 51.2658 14.9953H60.1877V13.048C60.1877 7.66092 57.7937 5.62034 54.0918 5.62034Z" fill="#000003"/>
</svg>
