<svg width="127" height="25" viewBox="0 0 127 25" fill="none" xmlns="http://www.w3.org/2000/svg">
<path d="M0 8.57165C0 5.57085 1.11703e-06 4.071 0.583277 2.9253C1.09559 1.91727 1.91505 1.09796 2.92193 0.583952C4.06631 0 5.56552 0 8.56174 0H16.4094C19.4067 0 20.9048 0 22.0491 0.583952C23.056 1.09685 23.8744 1.91727 24.3878 2.9253C24.9711 4.071 24.9711 5.57085 24.9711 8.57165V16.4283C24.9711 19.4292 24.9711 20.929 24.3878 22.0747C23.8755 23.0827 23.056 23.902 22.0491 24.416C20.9048 25 19.4055 25 16.4094 25H8.56174C5.56441 25 4.06631 25 2.92193 24.416C1.91505 23.9032 1.09669 23.0827 0.583277 22.0747C1.11703e-06 20.929 0 19.428 0 16.4283V8.57165Z" fill="#FFB401"/>
<path d="M4.60151 4.14022C5.43318 3.07557 6.68844 2.38615 8.30963 2.38615C10.3112 2.38615 11.5664 3.28095 12.4879 4.14577C13.4094 3.27983 14.6647 2.38615 16.6662 2.38615C18.2875 2.38615 19.5415 3.07668 20.3744 4.14022C21.1905 5.1849 21.573 6.55042 21.573 7.90593C21.573 11.1587 18.9872 13.5634 16.4589 15.3952L13.0169 17.9542C12.3881 18.4215 12.2284 19.2952 12.6509 19.9547C13.1122 20.6763 14.0858 20.8605 14.7789 20.3565L18.0058 18.013L18.8607 19.193L15.6339 21.5367C14.2633 22.5325 12.3382 22.1683 11.4245 20.7407C10.5895 19.4362 10.9055 17.7065 12.1475 16.7828L15.5961 14.2184L15.5995 14.215C18.1455 12.371 20.1149 10.3561 20.1149 7.90482C20.1149 6.80465 19.8022 5.77552 19.2256 5.03725C18.6644 4.31897 17.8295 3.8427 16.665 3.8427C14.892 3.8427 13.9328 4.7386 13.0058 5.67893C12.8694 5.8177 12.682 5.89652 12.4868 5.89652C12.2917 5.89652 12.1054 5.8188 11.9679 5.67893C11.0408 4.7375 10.0816 3.8427 8.30853 3.8427C7.1442 3.8427 6.3092 4.32007 5.7481 5.03725C5.17148 5.7744 4.85878 6.80465 4.85878 7.90482C4.85878 10.2828 6.75496 12.5187 9.18677 14.2062C9.51722 14.436 9.59927 14.89 9.37084 15.2209C9.1413 15.5517 8.68776 15.6338 8.35731 15.4052C5.83793 13.6566 3.40279 11.0399 3.40279 7.90482C3.40279 6.55042 3.78537 5.1849 4.60151 4.14022Z" fill="white"/>
<path d="M9.78929 7.03485C9.78929 6.97713 9.83587 6.9305 9.89353 6.9305H11.1421C11.1998 6.9305 11.2464 6.97713 11.2464 7.03485V8.98655C11.2464 9.04427 11.2929 9.0909 11.3506 9.0909H13.6249C13.6826 9.0909 13.7292 9.04427 13.7292 8.98655V7.03485C13.7292 6.97713 13.7758 6.9305 13.8334 6.9305H15.082C15.1397 6.9305 15.1863 6.97713 15.1863 7.03485V12.6057C15.1863 12.6634 15.1397 12.7101 15.082 12.7101H13.8334C13.7758 12.7101 13.7292 12.6634 13.7292 12.6057V10.654C13.7292 10.5963 13.6826 10.5497 13.6249 10.5497H11.3506C11.2929 10.5497 11.2464 10.5963 11.2464 10.654V12.6057C11.2464 12.6634 11.1998 12.7101 11.1421 12.7101H9.89353C9.83587 12.7101 9.78929 12.6634 9.78929 12.6057V7.03485Z" fill="white"/>
<path d="M20.1312 16.4598C19.6611 16.4598 19.2807 16.8417 19.2807 17.3113C19.2807 17.782 19.6621 18.1628 20.1312 18.1628C20.6003 18.1628 20.9817 17.781 20.9817 17.3113C20.9817 16.8407 20.6013 16.4598 20.1312 16.4598ZM17.8235 17.3113C17.8235 16.0357 18.8572 15.001 20.1312 15.001C21.4054 15.001 22.4389 16.0357 22.4389 17.3113C22.4389 18.588 21.4054 19.6217 20.1312 19.6217C18.8572 19.6217 17.8235 18.588 17.8235 17.3113Z" fill="white"/>
<path d="M31.3416 17.1045V6.5232H32.5342V11.224H38.6348V6.5232H39.8274V17.1045H38.6348V12.3414H32.5342V17.1045H31.3416Z" fill="black"/>
<path d="M44.9463 17.2708C44.1512 17.2708 43.466 17.0552 42.8935 16.621C42.3195 16.1883 42.0318 15.5833 42.0318 14.8061C42.0318 13.9898 42.334 13.3603 42.9383 12.9159C43.5426 12.4731 44.3522 12.2502 45.3698 12.2502C46.1751 12.2502 46.9701 12.3616 47.7566 12.5831V12.3414C47.7566 11.6568 47.5556 11.1314 47.1523 10.7696C46.7489 10.4078 46.1809 10.2254 45.4451 10.2254C44.6788 10.2254 43.8895 10.4121 43.0741 10.7855L42.7272 9.83318C43.6929 9.3903 44.6398 9.16742 45.5664 9.16742C46.6738 9.16742 47.5137 9.45543 48.089 10.03C48.6325 10.5742 48.9044 11.3398 48.9044 12.3283V17.1058H47.7566V15.9422C47.0612 16.828 46.1244 17.2708 44.9463 17.2708ZM45.1732 16.3345C45.8989 16.3345 46.5118 16.1376 47.0164 15.7454C47.5195 15.3518 47.771 14.8481 47.771 14.2344V13.5079C47.0063 13.2864 46.246 13.175 45.4913 13.175C44.7757 13.175 44.2177 13.3183 43.8158 13.6063C43.4124 13.8929 43.2115 14.2836 43.2115 14.7786C43.2115 15.2533 43.4009 15.6311 43.7782 15.9119C44.1541 16.1926 44.6195 16.3345 45.1732 16.3345Z" fill="black"/>
<path d="M51.3344 17.1045V6.5232H60.1527V17.1045H57.8267V8.62323H53.6604V17.1045H51.3344Z" fill="black"/>
<path d="M69.5538 16.061C68.7125 16.8772 67.6687 17.2853 66.4196 17.2853C65.1706 17.2853 64.1311 16.8787 63.3014 16.0682C62.4702 15.2577 62.0552 14.2562 62.0552 13.0679C62.0552 11.8884 62.476 10.8912 63.3159 10.0735C64.1572 9.25575 65.201 8.84905 66.4499 8.84905C67.699 8.84905 68.7384 9.2543 69.5681 10.0662C70.398 10.8767 70.8144 11.8768 70.8144 13.0665C70.8144 14.2475 70.3937 15.2447 69.5538 16.061ZM66.4499 15.3055C67.0847 15.3055 67.5921 15.0913 67.9752 14.6629C68.3567 14.2345 68.549 13.7033 68.549 13.0679C68.549 12.4528 68.3511 11.926 67.952 11.4875C67.5545 11.0489 67.0441 10.8304 66.4196 10.8304C65.785 10.8304 65.2761 11.0446 64.8946 11.473C64.5113 11.9014 64.3205 12.4326 64.3205 13.0679C64.3205 13.6831 64.5187 14.2099 64.9177 14.6484C65.3152 15.0855 65.8255 15.3055 66.4499 15.3055Z" fill="black"/>
<path d="M79.8296 9.00097V17.1045H77.5339V10.9664H74.7698V17.1045H72.4756V9.00097H79.8296Z" fill="black"/>
<path d="M81.8822 19.5243V9.00102H84.1764V10.1646C84.8212 9.28758 85.661 8.84905 86.699 8.84905C87.7066 8.84905 88.5711 9.2268 89.2968 9.98228C90.0225 10.7378 90.3839 11.7654 90.3839 13.0665C90.3839 14.356 90.024 15.3778 89.3041 16.1275C88.5841 16.8772 87.7153 17.2535 86.699 17.2535C85.6928 17.2535 84.8514 16.8512 84.1764 16.045V19.5215L81.8822 19.5243ZM84.7141 14.6788C85.0915 15.0971 85.557 15.3055 86.1107 15.3055C86.6644 15.3055 87.1326 15.0971 87.5144 14.6788C87.8974 14.2605 88.0884 13.7134 88.0884 13.039C88.0884 12.3848 87.8974 11.8479 87.5144 11.4296C87.1313 11.0113 86.6644 10.8015 86.1107 10.8015C85.557 10.8015 85.0915 11.0099 84.7141 11.4296C84.3369 11.8479 84.1474 12.3949 84.1474 13.0694C84.1474 13.7236 84.3369 14.2605 84.7141 14.6788Z" fill="black"/>
<path d="M94.3708 17.2563C93.5757 17.2563 92.9135 17.035 92.3844 16.5906C91.8567 16.1477 91.5908 15.5326 91.5908 14.7467C91.5908 13.8899 91.8856 13.2444 92.474 12.8117C93.0624 12.379 93.856 12.1618 94.8535 12.1618C95.5273 12.1618 96.1878 12.2733 96.8312 12.4947V12.3587C96.8312 11.3716 96.2529 10.8766 95.0949 10.8766C94.3996 10.8766 93.6551 11.0228 92.86 11.3152L92.2862 9.56105C93.2735 9.1283 94.3202 8.9112 95.4275 8.9112C96.6461 8.9112 97.5569 9.2137 98.1612 9.81867C98.7452 10.4034 99.0372 11.2645 99.0372 12.4036V17.1058H96.8181V16.2288C96.2023 16.9133 95.3869 17.2563 94.3708 17.2563ZM95.0646 15.6687C95.598 15.6687 96.0303 15.5355 96.3628 15.2678C96.6952 15.0015 96.8615 14.6613 96.8615 14.2474V13.8393C96.4292 13.6381 95.9406 13.5382 95.3957 13.5382C94.8927 13.5382 94.5023 13.6367 94.2261 13.8321C93.9486 14.0289 93.8097 14.314 93.8097 14.6859C93.8097 14.9884 93.9254 15.2272 94.1567 15.4038C94.3909 15.5818 94.6931 15.6687 95.0646 15.6687Z" fill="black"/>
<path d="M101.015 9.00097H105.455C106.28 9.00097 106.936 9.18333 107.425 9.54515C107.914 9.90698 108.158 10.402 108.158 11.0272C108.158 11.8739 107.73 12.4832 106.874 12.8566C107.931 13.1793 108.46 13.8596 108.46 14.8973C108.46 15.5819 108.191 16.1217 107.652 16.5154C107.114 16.909 106.376 17.1045 105.44 17.1045H101.015V9.00097ZM104.895 12.2516C105.207 12.2516 105.447 12.1763 105.612 12.0244C105.778 11.8739 105.862 11.677 105.862 11.4353C105.862 11.224 105.783 11.0475 105.627 10.9071C105.471 10.7667 105.236 10.6958 104.924 10.6958H103.279V12.2516H104.895ZM103.28 15.3054H105.092C105.787 15.3054 106.134 15.0333 106.134 14.4891C106.134 13.9652 105.767 13.7033 105.031 13.7033H103.279L103.28 15.3054Z" fill="black"/>
<path d="M110.075 17.1045V9.00097H112.371V12.3269L115.27 9.00097H117.913L114.938 12.3269L118.29 17.1045H115.571L113.413 14.0202L112.371 15.1549V17.1045H110.075Z" fill="black"/>
<path d="M121.233 19.5692C120.508 19.5692 119.83 19.3825 119.195 19.009L119.966 17.3462C120.318 17.5575 120.645 17.6632 120.947 17.6632C121.31 17.6632 121.576 17.4865 121.747 17.1348L118.575 9.00097H121.006L122.848 14.5195L124.615 9.00097H127L123.889 17.3013C123.577 18.1378 123.226 18.7253 122.832 19.0627C122.442 19.3998 121.909 19.5692 121.233 19.5692Z" fill="black"/>
</svg>
