<svg width="157" height="18" viewBox="0 0 157 18" fill="none" xmlns="http://www.w3.org/2000/svg">
<path d="M8.79215 2.90168H2.79974V13.0819H0V0.29508H11.5919V13.0819H8.79215V2.90168Z" fill="#FF4A37"/>
<path d="M14.3164 0.29508H17.1161V1.69672C17.6892 1.15574 18.3031 0.737707 18.958 0.44262C19.613 0.14754 20.3497 0 21.1684 0C22.0853 0 22.9285 0.172132 23.698 0.51639C24.4839 0.84426 25.1551 1.31147 25.7118 1.91803C26.2685 2.50819 26.7024 3.21315 27.0135 4.03275C27.3246 4.83608 27.4801 5.71312 27.4801 6.6639C27.4801 7.64752 27.3082 8.54918 26.9644 9.36885C26.6369 10.1721 26.1866 10.8688 25.6136 11.459C25.0406 12.0328 24.3529 12.4836 23.5507 12.8115C22.7648 13.1393 21.9215 13.3033 21.021 13.3033C20.2188 13.3033 19.4984 13.1803 18.8598 12.9344C18.2213 12.6885 17.6401 12.3442 17.1161 11.9017V18H14.3164V0.29508ZM20.6036 10.6967C21.1602 10.6967 21.6759 10.6066 22.1508 10.4262C22.6419 10.2459 23.0676 9.98363 23.4278 9.63938C23.788 9.2787 24.0664 8.85247 24.2629 8.36062C24.4757 7.85242 24.5822 7.27867 24.5822 6.63937C24.5822 6.0492 24.4921 5.50823 24.312 5.01638C24.1319 4.50818 23.8699 4.08195 23.5261 3.7377C23.1986 3.37702 22.8057 3.09833 22.3472 2.90168C21.8888 2.70495 21.3812 2.60656 20.8246 2.60656C19.9732 2.60656 19.22 2.81145 18.5651 3.22133C17.9266 3.63113 17.4436 4.12297 17.1161 4.69672V8.58195C17.4436 9.27052 17.9102 9.79508 18.516 10.1558C19.1218 10.5164 19.8177 10.6967 20.6036 10.6967Z" fill="#FF4A37"/>
<path d="M28.9348 6.6639C28.9348 5.6967 29.0985 4.81148 29.426 4.00823C29.7534 3.18855 30.2201 2.4836 30.8259 1.89344C31.4317 1.30327 32.1521 0.84426 32.9871 0.51639C33.8221 0.172132 34.7472 0 35.7623 0C36.761 0 37.6779 0.172132 38.5129 0.51639C39.3643 0.84426 40.0929 1.30327 40.6987 1.89344C41.3045 2.4836 41.7711 3.18855 42.0986 4.00823C42.4424 4.81148 42.6143 5.6967 42.6143 6.6639C42.6143 7.63117 42.4424 8.52457 42.0986 9.34425C41.7711 10.1476 41.3045 10.8442 40.6987 11.4344C40.0929 12.0246 39.3643 12.4836 38.5129 12.8115C37.6779 13.1393 36.761 13.3033 35.7623 13.3033C34.7635 13.3033 33.8467 13.1393 33.0116 12.8115C32.1766 12.4836 31.4562 12.0246 30.8504 11.4344C30.2446 10.8442 29.7698 10.1476 29.426 9.34425C29.0985 8.52457 28.9348 7.63117 28.9348 6.6639ZM31.8328 6.6639C31.8328 7.23772 31.9229 7.77052 32.103 8.2623C32.2995 8.75407 32.5696 9.1803 32.9134 9.54098C33.2572 9.90165 33.6666 10.1885 34.1414 10.4017C34.6326 10.5983 35.1729 10.6967 35.7623 10.6967C36.3517 10.6967 36.8838 10.6066 37.3586 10.4262C37.8498 10.2295 38.2673 9.95902 38.6112 9.61477C38.955 9.2541 39.2251 8.82788 39.4216 8.3361C39.6181 7.84425 39.7163 7.28685 39.7163 6.6639C39.7163 6.04095 39.6099 5.48362 39.3971 4.99177C39.2006 4.48357 38.9222 4.05735 38.562 3.7131C38.2018 3.35243 37.7843 3.08198 37.3095 2.90168C36.8347 2.70495 36.319 2.60656 35.7623 2.60656C35.2056 2.60656 34.6817 2.70495 34.1905 2.90168C33.7157 3.08198 33.2982 3.35243 32.938 3.7131C32.5942 4.05735 32.324 4.48357 32.1275 4.99177C31.931 5.48362 31.8328 6.04095 31.8328 6.6639Z" fill="#FF4A37"/>
<path d="M43.3619 10.4754H44.8404C45.4154 9.7377 45.8015 8.89342 45.9986 7.94265C46.1958 6.9918 46.2943 5.91803 46.2943 4.72132V0.29508H56.5946V10.4754H58.3935V16.0082H55.7814V13.0819H45.9739V16.0082H43.3619V10.4754ZM53.7854 10.4754V2.90168H48.9556V6.17212C48.9556 6.95902 48.8488 7.74592 48.6352 8.53275C48.4217 9.3033 48.126 9.95085 47.7482 10.4754H53.7854Z" fill="#3981F1"/>
<path d="M58.9635 6.6639C58.9635 5.6967 59.1278 4.81148 59.4564 4.00823C59.7849 3.18855 60.2531 2.4836 60.8609 1.89344C61.4687 1.30327 62.1916 0.84426 63.0294 0.51639C63.8672 0.172132 64.7954 0 65.814 0C66.816 0 67.736 0.172132 68.5738 0.51639C69.4281 0.84426 70.1591 1.30327 70.7669 1.89344C71.3747 2.4836 71.843 3.18855 72.1715 4.00823C72.5165 4.81148 72.689 5.6967 72.689 6.6639C72.689 7.63117 72.5165 8.52457 72.1715 9.34425C71.843 10.1476 71.3747 10.8442 70.7669 11.4344C70.1591 12.0246 69.4281 12.4836 68.5738 12.8115C67.736 13.1393 66.816 13.3033 65.814 13.3033C64.8119 13.3033 63.8918 13.1393 63.054 12.8115C62.2162 12.4836 61.4934 12.0246 60.8856 11.4344C60.2777 10.8442 59.8013 10.1476 59.4564 9.34425C59.1278 8.52457 58.9635 7.63117 58.9635 6.6639ZM61.8712 6.6639C61.8712 7.23772 61.9615 7.77052 62.1422 8.2623C62.3394 8.75407 62.6105 9.1803 62.9554 9.54098C63.3005 9.90165 63.7111 10.1885 64.1876 10.4017C64.6804 10.5983 65.2225 10.6967 65.814 10.6967C66.4053 10.6967 66.9392 10.6066 67.4156 10.4262C67.9085 10.2295 68.3274 9.95902 68.6724 9.61477C69.0173 9.2541 69.2884 8.82788 69.4856 8.3361C69.6827 7.84425 69.7813 7.28685 69.7813 6.6639C69.7813 6.04095 69.6745 5.48362 69.4609 4.99177C69.2638 4.48357 68.9845 4.05735 68.6231 3.7131C68.2617 3.35243 67.8428 3.08198 67.3664 2.90168C66.8899 2.70495 66.3725 2.60656 65.814 2.60656C65.2554 2.60656 64.7297 2.70495 64.2368 2.90168C63.7605 3.08198 63.3415 3.35243 62.9801 3.7131C62.6352 4.05735 62.3641 4.48357 62.1669 4.99177C61.9698 5.48362 61.8712 6.04095 61.8712 6.6639Z" fill="#3981F1"/>
<path d="M74.4274 0.29508H77.2365V5.48362L82.7809 0.29508H86.4524L80.218 6.0738L86.6745 13.0819H83.0769L78.1733 7.81965L77.2365 8.72947V13.0819H74.4274V0.29508Z" fill="#3981F1"/>
<path d="M87.5611 0.29508H99.6359V2.90168H95.0029V13.0819H92.1941V2.90168H87.5611V0.29508Z" fill="#3981F1"/>
<path d="M100.25 6.6639C100.25 5.6967 100.414 4.81148 100.743 4.00823C101.071 3.18855 101.539 2.4836 102.147 1.89344C102.755 1.30327 103.478 0.84426 104.316 0.51639C105.153 0.172132 106.082 0 107.1 0C108.103 0 109.022 0.172132 109.86 0.51639C110.715 0.84426 111.445 1.30327 112.053 1.89344C112.661 2.4836 113.13 3.18855 113.458 4.00823C113.803 4.81148 113.975 5.6967 113.975 6.6639C113.975 7.63117 113.803 8.52457 113.458 9.34425C113.13 10.1476 112.661 10.8442 112.053 11.4344C111.445 12.0246 110.715 12.4836 109.86 12.8115C109.022 13.1393 108.103 13.3033 107.1 13.3033C106.098 13.3033 105.178 13.1393 104.341 12.8115C103.503 12.4836 102.78 12.0246 102.172 11.4344C101.564 10.8442 101.088 10.1476 100.743 9.34425C100.414 8.52457 100.25 7.63117 100.25 6.6639ZM103.158 6.6639C103.158 7.23772 103.248 7.77052 103.429 8.2623C103.626 8.75407 103.897 9.1803 104.242 9.54098C104.587 9.90165 104.998 10.1885 105.474 10.4017C105.967 10.5983 106.509 10.6967 107.1 10.6967C107.692 10.6967 108.226 10.6066 108.702 10.4262C109.195 10.2295 109.614 9.95902 109.959 9.61477C110.304 9.2541 110.575 8.82788 110.772 8.3361C110.969 7.84425 111.068 7.28685 111.068 6.6639C111.068 6.04095 110.961 5.48362 110.747 4.99177C110.55 4.48357 110.271 4.05735 109.91 3.7131C109.548 3.35243 109.129 3.08198 108.653 2.90168C108.177 2.70495 107.659 2.60656 107.1 2.60656C106.542 2.60656 106.016 2.70495 105.523 2.90168C105.047 3.08198 104.628 3.35243 104.267 3.7131C103.921 4.05735 103.651 4.48357 103.453 4.99177C103.257 5.48362 103.158 6.04095 103.158 6.6639Z" fill="#3981F1"/>
<path d="M115.692 0.29508H118.501V1.69672C119.076 1.15574 119.692 0.737707 120.349 0.44262C121.006 0.14754 121.745 0 122.567 0C123.486 0 124.333 0.172132 125.105 0.51639C125.893 0.84426 126.567 1.31147 127.125 1.91803C127.684 2.50819 128.119 3.21315 128.431 4.03275C128.744 4.83608 128.899 5.71312 128.899 6.6639C128.899 7.64752 128.727 8.54918 128.382 9.36885C128.054 10.1721 127.602 10.8688 127.026 11.459C126.452 12.0328 125.761 12.4836 124.957 12.8115C124.168 13.1393 123.322 13.3033 122.419 13.3033C121.614 13.3033 120.891 13.1803 120.25 12.9344C119.609 12.6885 119.026 12.3442 118.501 11.9017V18H115.692V0.29508ZM122 10.6967C122.559 10.6967 123.076 10.6066 123.552 10.4262C124.045 10.2459 124.473 9.98363 124.834 9.63938C125.195 9.2787 125.474 8.85247 125.672 8.36062C125.885 7.85242 125.992 7.27867 125.992 6.63937C125.992 6.0492 125.901 5.50823 125.721 5.01638C125.54 4.50818 125.277 4.08195 124.932 3.7377C124.603 3.37702 124.209 3.09833 123.75 2.90168C123.289 2.70495 122.78 2.60656 122.222 2.60656C121.368 2.60656 120.612 2.81145 119.955 3.22133C119.314 3.63113 118.83 4.12297 118.501 4.69672V8.58195C118.83 9.27052 119.298 9.79508 119.905 10.1558C120.513 10.5164 121.211 10.6967 122 10.6967Z" fill="#3981F1"/>
<path d="M130.293 6.6639C130.293 5.6967 130.457 4.81148 130.785 4.00823C131.114 3.18855 131.582 2.4836 132.19 1.89344C132.798 1.30327 133.521 0.84426 134.358 0.51639C135.196 0.172132 136.125 0 137.143 0C138.145 0 139.065 0.172132 139.903 0.51639C140.757 0.84426 141.488 1.30327 142.096 1.89344C142.704 2.4836 143.172 3.18855 143.501 4.00823C143.846 4.81148 144.018 5.6967 144.018 6.6639C144.018 7.63117 143.846 8.52457 143.501 9.34425C143.172 10.1476 142.704 10.8442 142.096 11.4344C141.488 12.0246 140.757 12.4836 139.903 12.8115C139.065 13.1393 138.145 13.3033 137.143 13.3033C136.141 13.3033 135.221 13.1393 134.383 12.8115C133.546 12.4836 132.823 12.0246 132.215 11.4344C131.607 10.8442 131.131 10.1476 130.785 9.34425C130.457 8.52457 130.293 7.63117 130.293 6.6639ZM133.2 6.6639C133.2 7.23772 133.291 7.77052 133.472 8.2623C133.669 8.75407 133.94 9.1803 134.285 9.54098C134.63 9.90165 135.04 10.1885 135.517 10.4017C136.01 10.5983 136.552 10.6967 137.143 10.6967C137.735 10.6967 138.268 10.6066 138.745 10.4262C139.238 10.2295 139.657 9.95902 140.001 9.61477C140.347 9.2541 140.617 8.82788 140.815 8.3361C141.012 7.84425 141.111 7.28685 141.111 6.6639C141.111 6.04095 141.004 5.48362 140.79 4.99177C140.593 4.48357 140.314 4.05735 139.952 3.7131C139.591 3.35243 139.172 3.08198 138.695 2.90168C138.219 2.70495 137.702 2.60656 137.143 2.60656C136.585 2.60656 136.059 2.70495 135.567 2.90168C135.09 3.08198 134.671 3.35243 134.31 3.7131C133.964 4.05735 133.694 4.48357 133.496 4.99177C133.299 5.48362 133.2 6.04095 133.2 6.6639Z" fill="#3981F1"/>
<path d="M145.763 0.29508H151.234C153.024 0.29508 154.371 0.54918 155.275 1.05738C156.178 1.56557 156.631 2.44262 156.631 3.6885C156.631 4.27868 156.499 4.7787 156.236 5.1885C155.974 5.59837 155.628 5.96723 155.201 6.29505C155.809 6.52463 156.261 6.90982 156.557 7.4508C156.852 7.97542 157 8.58195 157 9.27052C157 10.5492 156.548 11.5082 155.645 12.1475C154.741 12.7705 153.468 13.0819 151.825 13.0819H145.763V0.29508ZM148.573 7.79505V10.5492H151.554C152.392 10.5492 153.024 10.4426 153.452 10.2295C153.879 10.0164 154.093 9.67215 154.093 9.19672C154.093 8.68853 153.887 8.32785 153.476 8.11477C153.082 7.90162 152.466 7.79505 151.628 7.79505H148.573ZM148.573 2.82788V5.36062H151.874C152.449 5.36062 152.902 5.25413 153.23 5.04098C153.559 4.8279 153.722 4.5 153.722 4.05735C153.722 3.5328 153.501 3.19673 153.057 3.0492C152.63 2.90167 151.998 2.82788 151.16 2.82788H148.573Z" fill="#3981F1"/>
</svg>
