<svg width="120" height="19" viewBox="0 0 120 19" fill="none" xmlns="http://www.w3.org/2000/svg">
<path d="M10 0L12.3607 7.25737H20L13.8197 11.7427L16.1803 19L10 14.5147L3.81967 19L6.18036 11.7427L0 7.25737H7.63934L10 0Z" fill="#FAC816"/>
<path d="M35 0L37.3607 7.25737H45L38.8197 11.7427L41.1803 19L35 14.5147L28.8197 19L31.1804 11.7427L25 7.25737H32.6393L35 0Z" fill="#FAC816"/>
<path d="M60 0L62.3607 7.25737H70L63.8197 11.7427L66.1803 19L60 14.5147L53.8197 19L56.1804 11.7427L50 7.25737H57.6393L60 0Z" fill="#FAC816"/>
<path d="M85 0L87.3607 7.25737H95L88.8197 11.7427L91.1803 19L85 14.5147L78.8197 19L81.1804 11.7427L75 7.25737H82.6393L85 0Z" fill="#FAC816"/>
<path d="M110 0L112.361 7.25737H120L113.82 11.7427L116.18 19L110 14.5147L103.82 19L106.18 11.7427L100 7.25737H107.639L110 0Z" fill="#D9D9D9"/>
</svg>
