<svg width="58" height="58" viewBox="0 0 58 58" fill="none" xmlns="http://www.w3.org/2000/svg">
<rect width="58" height="58" fill="#5C4099"/>
<path d="M43 36V41.4469C43 41.8898 42.8852 42.2234 42.5516 42.557C42.2125 42.8961 41.8898 43 41.4469 43C34.8789 42.8852 27.2227 40.7961 22.2188 35.7922C17.2148 30.7883 15.1148 23.1211 15 16.5531C15 16.1102 15.1094 15.782 15.443 15.4484C15.7766 15.1148 16.1047 15 16.5531 15H22L23.4 23.4L20.7859 26.7961C21.5625 29 23.1211 31.3406 24.893 33.118C26.6703 34.8953 29 36.4375 31.1984 37.2141L34.5945 34.6L43 36Z" fill="white"/>
</svg>
