<svg width="44" height="44" viewBox="0 0 44 44" fill="none" xmlns="http://www.w3.org/2000/svg">
<rect width="44" height="44" fill="#5C4099"/>
<g clip-path="url(#clip0_2013_2416)">
<g clip-path="url(#clip1_2013_2416)">
<path d="M19.3934 25.0967L19.0333 30.6314C19.6334 30.6314 19.8734 30.3907 20.1135 30.1501L22.7538 27.6234L28.2746 31.7142C29.2348 32.3158 29.9549 31.9549 30.3149 30.7517L33.9154 13.7868C34.2755 12.343 33.4354 11.7414 32.3552 12.1023L11.1122 20.1637C9.672 20.7652 9.672 21.4872 10.8722 21.8481L16.2729 23.5326L28.8747 15.5916C29.4748 15.2306 29.9549 15.4712 29.5948 15.8322L19.3934 25.0967Z" fill="white"/>
</g>
</g>
<defs>
<clipPath id="clip0_2013_2416">
<rect width="24" height="24" fill="white" transform="translate(10 10)"/>
</clipPath>
<clipPath id="clip1_2013_2416">
<rect width="24" height="24" fill="white" transform="translate(10 10)"/>
</clipPath>
</defs>
</svg>
