<svg width="44" height="44" viewBox="0 0 44 44" fill="none" xmlns="http://www.w3.org/2000/svg">
<rect width="44" height="44" fill="#E9E4F1"/>
<g clip-path="url(#clip0_58_414)">
<g clip-path="url(#clip1_58_414)">
<path d="M21.6144 18.7241C20.0447 18.7241 18.7676 19.9693 18.7676 21.4998C18.7676 23.0304 20.0447 24.2755 21.6144 24.2755C23.1842 24.2755 24.4613 23.0303 24.4613 21.4998C24.4613 19.9693 23.1842 18.7241 21.6144 18.7241Z" fill="#2E2E2E"/>
<path d="M32.8327 21.0668C32.7816 21.0109 31.5573 19.6828 29.5751 18.3433C26.9246 16.5522 24.1719 15.6055 21.6146 15.6055C19.0573 15.6055 16.3046 16.5522 13.6541 18.3433C11.6719 19.6828 10.4476 21.0109 10.3965 21.0668L10 21.4999L10.3965 21.9331C10.4476 21.9889 11.6719 23.317 13.6541 24.6566C16.3046 26.4476 19.0573 27.3944 21.6146 27.3944C24.1719 27.3944 26.9246 26.4476 29.5751 24.6566C31.5573 23.317 32.7816 21.9889 32.8327 21.9331L33.2292 21.4999L32.8327 21.0668ZM21.6146 25.5767C19.3091 25.5767 17.4333 23.7479 17.4333 21.4999C17.4333 19.2519 19.3091 17.4231 21.6146 17.4231C23.9203 17.4231 25.796 19.2519 25.796 21.4999C25.796 23.7479 23.9203 25.5767 21.6146 25.5767Z" fill="#2E2E2E"/>
</g>
</g>
<defs>
<clipPath id="clip0_58_414">
<rect width="24" height="24" fill="white" transform="translate(10 10)"/>
</clipPath>
<clipPath id="clip1_58_414">
<rect width="24" height="24" fill="white" transform="translate(10 10)"/>
</clipPath>
</defs>
</svg>
