<svg width="44" height="44" viewBox="0 0 44 44" fill="none" xmlns="http://www.w3.org/2000/svg">
<rect width="44" height="44" fill="#FAF9FE"/>
<path d="M29.705 23.0668C29.345 22.5873 29.465 22.3596 29.705 21.8801C29.705 21.8801 32.9092 17.4932 33.2692 15.9469C33.3892 15.3596 33.2692 15 32.4412 15H29.825C29.117 15 28.877 15.3596 28.637 15.7072C28.637 15.7072 27.3289 18.9075 25.4328 20.9212C24.8448 21.5086 24.6048 21.7483 24.2447 21.7483C24.1247 21.7483 23.7647 21.5086 23.7647 21.0411V16.0788C23.7647 15.4914 23.5247 15.1318 23.0567 15.1318H19.1445C18.6644 15.1318 18.4364 15.4914 18.4364 15.7192C18.4364 16.3065 19.3845 16.4264 19.5045 18.2123V22.012C19.5045 22.839 19.3845 22.9589 19.0245 22.9589C18.1964 22.9589 15.9403 19.7586 14.7522 16.0788C14.5122 15.3716 14.2722 15.1318 13.5642 15.1318H10.948C10.12 15.1318 10 15.4795 10 15.839C10 16.5462 10.828 19.8664 14.1522 24.3733C16.2883 27.4538 19.3725 29 22.1086 29C23.7647 29 24.0047 28.6404 24.0047 28.0531C24.0047 25.2123 23.8847 24.8527 24.7128 24.8527C25.0728 24.8527 25.7808 25.0925 27.3289 26.5068C29.105 28.2808 29.345 29 30.4131 29H33.0292C33.7372 29 34.0972 28.6404 33.9772 27.9332C33.2692 26.387 29.945 23.3065 29.705 23.0668Z" fill="#4E3C62"/>
</svg>
