<svg width="58" height="58" viewBox="0 0 58 58" fill="none" xmlns="http://www.w3.org/2000/svg">
<rect width="58" height="58" fill="#5C4099"/>
<path fill-rule="evenodd" clip-rule="evenodd" d="M42.9936 28.2922C42.807 20.9191 36.7321 15 29.254 15C21.8667 15 15.8429 20.784 15.5212 28.0413C15.5147 28.2406 15.5082 28.4403 15.5082 28.6397C15.5082 31.2195 16.2291 33.6259 17.4776 35.6847L15 43L22.6129 40.5808C24.5822 41.6618 26.8475 42.2793 29.254 42.2793C36.8479 42.2793 43 36.1734 43 28.6397C43 28.5238 43 28.408 42.9936 28.2922ZM29.254 40.1046C26.9056 40.1046 24.7236 39.4101 22.8963 38.2068L18.4556 39.622L19.897 35.363C18.5136 33.4712 17.6963 31.1488 17.6963 28.6397C17.6963 28.2664 17.7157 27.8932 17.7541 27.5267C18.3207 21.723 23.2628 17.1747 29.254 17.1747C35.3226 17.1747 40.3103 21.8389 40.7733 27.7454C40.7991 28.0413 40.8123 28.3375 40.8123 28.6397C40.8123 34.9639 35.6249 40.1046 29.254 40.1046Z" fill="white"/>
<path fill-rule="evenodd" clip-rule="evenodd" d="M35.5551 31.3939C35.214 31.2268 33.5604 30.4158 33.2515 30.3063C32.9423 30.1906 32.7171 30.139 32.4919 30.4738C32.2668 30.8083 31.6169 31.5609 31.4239 31.7797C31.2242 32.0048 31.0316 32.0306 30.6901 31.8633C30.3555 31.6962 29.2681 31.3487 27.9805 30.2034C26.9835 29.3221 26.3014 28.2281 26.1081 27.8937C25.9151 27.5594 26.089 27.3791 26.2562 27.212C26.4105 27.0574 26.5908 26.8193 26.7644 26.6265C26.81 26.5687 26.8484 26.5167 26.8867 26.4654C26.9641 26.3431 27.0219 26.2274 27.0994 26.0663C27.2149 25.8412 27.1571 25.6482 27.0736 25.4809C26.9899 25.3137 26.314 23.6665 26.031 22.9974C25.7541 22.3287 25.4711 22.4442 25.2718 22.4442C25.0784 22.4442 24.8532 22.4123 24.6279 22.4123C24.4027 22.4123 24.0359 22.4958 23.727 22.8303C23.418 23.1649 22.5493 23.9756 22.5493 25.6224C22.5493 26.0087 22.6202 26.3945 22.7232 26.7612C23.0643 27.9387 23.7981 28.9101 23.9264 29.0776C24.0939 29.2963 26.2562 32.7832 29.6798 34.1282C33.11 35.4599 33.11 35.0161 33.7279 34.958C34.3451 34.9068 35.7226 34.1538 35.9991 33.3692C36.2824 32.5908 36.2824 31.9213 36.1988 31.7797C36.1149 31.6449 35.8897 31.561 35.5551 31.3939Z" fill="white"/>
</svg>
