<svg width="58" height="58" viewBox="0 0 58 58" fill="none" xmlns="http://www.w3.org/2000/svg">
<rect width="58" height="58" fill="#5C4099"/>
<path d="M43 35.0433V36.0433H44V35.0433H43ZM25.2691 35.0433V34.0433H24.8393L24.5436 34.3551L25.2691 35.0433ZM20.8272 39.7268L20.1016 39.0386L20.0909 39.05L20.0805 39.0616L20.8272 39.7268ZM19.442 39.4224L20.3961 39.1231L20.3932 39.1137L20.3901 39.1044L19.442 39.4224ZM17.9736 35.0433L18.9217 34.7254L18.693 34.0433H17.9736V35.0433ZM15 35.0433H14V36.0433H15V35.0433ZM15 18V17H14V18H15ZM43 18H44V17H43V18ZM43 35.0433V34.0433H25.2691V35.0433V36.0433H43V35.0433ZM25.2691 35.0433L24.5436 34.3551L20.1016 39.0386L20.8272 39.7268L21.5527 40.4149L25.9947 35.7314L25.2691 35.0433ZM20.8272 39.7268L20.0805 39.0616C20.1009 39.0386 20.1284 39.0201 20.1608 39.0095L20.4711 39.9601L20.7814 40.9108C21.0876 40.8109 21.3606 40.6313 21.5739 40.3919L20.8272 39.7268ZM20.4711 39.9601L20.1608 39.0095C20.1934 38.9989 20.2286 38.9971 20.2624 39.0045L20.0477 39.9812L19.8331 40.9579C20.1479 41.0271 20.4752 41.0108 20.7814 40.9108L20.4711 39.9601ZM20.0477 39.9812L20.2624 39.0045C20.2961 39.0119 20.3258 39.0279 20.3489 39.0493L19.6709 39.7843L18.9928 40.5193C19.2286 40.7369 19.5183 40.8887 19.8331 40.9579L20.0477 39.9812ZM19.6709 39.7843L20.3489 39.0493C20.372 39.0706 20.3877 39.0963 20.3961 39.1231L19.442 39.4224L18.4878 39.7216C18.5834 40.0263 18.757 40.3018 18.9928 40.5193L19.6709 39.7843ZM19.442 39.4224L20.3901 39.1044L18.9217 34.7254L17.9736 35.0433L17.0255 35.3612L18.4938 39.7403L19.442 39.4224ZM17.9736 35.0433V34.0433H15V35.0433V36.0433H17.9736V35.0433ZM15 35.0433H16V18H15H14V35.0433H15ZM15 18V19H43V18V17H15V18ZM43 18H42V35.0433H43H44V18H43ZM22.0923 26.6598H21.0923C21.0923 27.2099 20.6564 27.6316 20.1484 27.6316V28.6316V29.6316C21.7877 29.6316 23.0923 28.2876 23.0923 26.6598H22.0923ZM20.1484 28.6316V27.6316C19.6404 27.6316 19.2045 27.2099 19.2045 26.6598H18.2045H17.2045C17.2045 28.2876 18.5092 29.6316 20.1484 29.6316V28.6316ZM18.2045 26.6598H19.2045C19.2045 26.1097 19.6404 25.688 20.1484 25.688V24.688V23.688C18.5092 23.688 17.2045 25.032 17.2045 26.6598H18.2045ZM20.1484 24.688V25.688C20.6564 25.688 21.0923 26.1097 21.0923 26.6598H22.0923H23.0923C23.0923 25.032 21.7877 23.688 20.1484 23.688V24.688ZM30.8654 26.6598H29.8654C29.8654 27.2099 29.4295 27.6316 28.9215 27.6316V28.6316V29.6316C30.5607 29.6316 31.8654 28.2876 31.8654 26.6598H30.8654ZM28.9215 28.6316V27.6316C28.4135 27.6316 27.9776 27.2099 27.9776 26.6598H26.9776H25.9776C25.9776 28.2876 27.2823 29.6316 28.9215 29.6316V28.6316ZM26.9776 26.6598H27.9776C27.9776 26.1097 28.4135 25.688 28.9215 25.688V24.688V23.688C27.2823 23.688 25.9776 25.032 25.9776 26.6598H26.9776ZM28.9215 24.688V25.688C29.4295 25.688 29.8654 26.1097 29.8654 26.6598H30.8654H31.8654C31.8654 25.032 30.5607 23.688 28.9215 23.688V24.688ZM39.6385 26.6598H38.6385C38.6385 27.2099 38.2026 27.6316 37.6946 27.6316V28.6316V29.6316C39.3338 29.6316 40.6385 28.2876 40.6385 26.6598H39.6385ZM37.6946 28.6316V27.6316C37.1866 27.6316 36.7507 27.2099 36.7507 26.6598H35.7507H34.7507C34.7507 28.2876 36.0554 29.6316 37.6946 29.6316V28.6316ZM35.7507 26.6598H36.7507C36.7507 26.1097 37.1866 25.688 37.6946 25.688V24.688V23.688C36.0554 23.688 34.7507 25.032 34.7507 26.6598H35.7507ZM37.6946 24.688V25.688C38.2026 25.688 38.6385 26.1097 38.6385 26.6598H39.6385H40.6385C40.6385 25.032 39.3338 23.688 37.6946 23.688V24.688Z" fill="white"/>
</svg>
